<svg xmlns="http://www.w3.org/2000/svg" xmlns:xlink="http://www.w3.org/1999/xlink" viewBox="0 0 196.96 86.22"><defs><style>.cls-1{fill:url(#linear-gradient);}.cls-2{fill:url(#linear-gradient-2);}.cls-3{fill:url(#linear-gradient-3);}.cls-4{fill:url(#linear-gradient-4);}.cls-5{fill:url(#linear-gradient-5);}.cls-6{fill:url(#linear-gradient-6);}.cls-7,.cls-8{fill:none;}.cls-8{clip-rule:evenodd;}.cls-9{clip-path:url(#clip-path);}.cls-10{fill:url(#linear-gradient-7);}.cls-11{clip-path:url(#clip-path-2);}.cls-12{fill:url(#linear-gradient-8);}.cls-13{clip-path:url(#clip-path-3);}.cls-14{fill:url(#linear-gradient-9);}.cls-15{fill:#6f4f1c;}.cls-15,.cls-36,.cls-37,.cls-38{fill-rule:evenodd;}.cls-16{clip-path:url(#clip-path-4);}.cls-17{fill:url(#linear-gradient-10);}.cls-18{clip-path:url(#clip-path-5);}.cls-19{fill:url(#linear-gradient-11);}.cls-20{clip-path:url(#clip-path-6);}.cls-21{fill:url(#linear-gradient-12);}.cls-22{clip-path:url(#clip-path-7);}.cls-23{fill:url(#linear-gradient-13);}.cls-24{clip-path:url(#clip-path-8);}.cls-25{fill:url(#linear-gradient-14);}.cls-26{clip-path:url(#clip-path-9);}.cls-27{fill:url(#linear-gradient-15);}.cls-28{clip-path:url(#clip-path-10);}.cls-29{fill:url(#linear-gradient-16);}.cls-30{clip-path:url(#clip-path-11);}.cls-31{fill:url(#linear-gradient-17);}.cls-32{clip-path:url(#clip-path-12);}.cls-33{fill:url(#linear-gradient-18);}.cls-34{clip-path:url(#clip-path-13);}.cls-35{fill:url(#linear-gradient-19);}.cls-36{fill:#825c24;}.cls-37{fill:#d98627;}.cls-38,.cls-59{fill:#6d6e71;}.cls-39{opacity:0.22;}.cls-40{clip-path:url(#clip-path-14);}.cls-41{clip-path:url(#clip-path-15);}.cls-42{mask:url(#mask);}.cls-43{fill:url(#linear-gradient-20);}.cls-44{clip-path:url(#clip-path-16);}.cls-45{mask:url(#mask-2);}.cls-46{fill:url(#linear-gradient-21);}.cls-47{clip-path:url(#clip-path-17);}.cls-48{mask:url(#mask-3);}.cls-49{fill:url(#linear-gradient-22);}.cls-50{clip-path:url(#clip-path-18);}.cls-51{mask:url(#mask-4);}.cls-52{fill:url(#linear-gradient-23);}.cls-53{clip-path:url(#clip-path-19);}.cls-54{mask:url(#mask-5);}.cls-55{fill:url(#linear-gradient-24);}.cls-56{clip-path:url(#clip-path-20);}.cls-57{mask:url(#mask-6);}.cls-58{fill:url(#linear-gradient-25);}</style><linearGradient id="linear-gradient" x1="-555.53" y1="-3841.02" x2="-555.27" y2="-3841.02" gradientTransform="matrix(0, 66.55, 66.55, 0, 255742.46, 37034.87)" gradientUnits="userSpaceOnUse"><stop offset="0" stop-color="#fff"/><stop offset="0.03" stop-color="#ececec"/><stop offset="0.14" stop-color="#b5b5b5"/><stop offset="0.26" stop-color="#858585"/><stop offset="0.37" stop-color="#5c5c5c"/><stop offset="0.49" stop-color="#3b3b3b"/><stop offset="0.61" stop-color="#212121"/><stop offset="0.73" stop-color="#0f0f0f"/><stop offset="0.86" stop-color="#040404"/><stop offset="1"/></linearGradient><linearGradient id="linear-gradient-2" x1="-556.7" y1="-3841.99" x2="-556.43" y2="-3841.99" gradientTransform="matrix(0, 67.8, 67.8, 0, 260628.41, 37807.35)" xlink:href="#linear-gradient"/><linearGradient id="linear-gradient-3" x1="-556.87" y1="-3842.68" x2="-556.61" y2="-3842.68" gradientTransform="matrix(0, 68, 68, 0, 261444.68, 37928.57)" xlink:href="#linear-gradient"/><linearGradient id="linear-gradient-4" x1="-558.59" y1="-3843.45" x2="-558.33" y2="-3843.45" gradientTransform="matrix(0, 69.91, 69.91, 0, 268851.31, 39111.61)" xlink:href="#linear-gradient"/><linearGradient id="linear-gradient-5" x1="-559.03" y1="-3844.26" x2="-558.77" y2="-3844.26" gradientTransform="matrix(0, 70.43, 70.43, 0, 270927.35, 39432.72)" xlink:href="#linear-gradient"/><linearGradient id="linear-gradient-6" x1="-566.16" y1="-3840.87" x2="-565.89" y2="-3840.87" gradientTransform="matrix(0, 79.77, 79.77, 0, 306468.81, 45224)" xlink:href="#linear-gradient"/><clipPath id="clip-path"><path class="cls-7" d="M61.31,29.75h0Zm-20.46-9c-1.56,1-1.8,3.32-2.72,4.31s-1.7,1-1.91,2.3.21,1.84-.85,2.37a4.32,4.32,0,0,1-3.47.18,3.42,3.42,0,0,1-1.37-1.46,1.45,1.45,0,0,0-.39-.91c-.35-.32-.28-.6-.28-.6l.64-.18a.66.66,0,0,0-.53-.42,1.44,1.44,0,0,0-1,.28,7.94,7.94,0,0,1-.82.39s-1.45.07-1.83.46a5.64,5.64,0,0,1-.67.56s-1.35.28-1.63,1-.11,1-.11,1l.49.29s-.07-.18.89-.11a10,10,0,0,0,1.91.24c.74-.07,1-.28,1.34.11s2.2,4,6.47,3.4,5.22-1,5.8-.89a39.41,39.41,0,0,1,4.42,1.17c.35.21,2.39,2.33,3.24,2.83a12.52,12.52,0,0,1,2.19,2.08,10.12,10.12,0,0,0-.42,1.56,1.18,1.18,0,0,0,.28.77,15.13,15.13,0,0,0,1.8-1.27,3.38,3.38,0,0,0,.07-.74l-1.3-1.52a18.49,18.49,0,0,1-2.69-2.37,9.09,9.09,0,0,1-.85-1.76s1.95.66,3.19.91,2.16.1,2.68.78.08,1.31.18,1.76.24.57.24.57l1.59-1.52-.31-.88S55,35,53.29,34.28s-6.65-2.37-6.79-2.91.18-.95.74-1.23a3.32,3.32,0,0,0,2-1.88c.32-1.12.07-2.18.74-2.18s1.7,1,2.9,1.09,1.37,0,2.12.53,2.08,1.7,2.3,2.79,0,1.91.14,2.44a2.17,2.17,0,0,0,.25.74L59,32.26l-.18-1.2a9.81,9.81,0,0,1-1.59-1.91c-.43-.81-1.24-2.29-2.12-2.69s-1.07-.81-.89-.95.6-.39,1.84-.07,2,0,2.83.64a22.58,22.58,0,0,1,2.26,2.36s-.29.57,0,.92.2.36.19.38l1-1.2-.43-1-1.55-1L58.2,24.38a22.79,22.79,0,0,1-3.36-.92c-.88-.42-1.58-1.66-2-1.91s-.42-.6,0-.53a3.93,3.93,0,0,0,1,0s-3-.46-4.24-.57c-.69-.06-2.91-.28-5-.28a8.53,8.53,0,0,0-3.78.56"/></clipPath><linearGradient id="linear-gradient-7" x1="-651.55" y1="-3818.79" x2="-651.29" y2="-3818.79" gradientTransform="matrix(0, -105.5, -105.5, 0, -402847.56, -68696.13)" gradientUnits="userSpaceOnUse"><stop offset="0" stop-color="#f0c11a"/><stop offset="0.06" stop-color="#f0c11a"/><stop offset="0.19" stop-color="#e9bb1b"/><stop offset="0.39" stop-color="#d6a91c"/><stop offset="0.62" stop-color="#b78d1f"/><stop offset="0.88" stop-color="#8c6523"/><stop offset="0.93" stop-color="#825c24"/><stop offset="1" stop-color="#825c24"/></linearGradient><clipPath id="clip-path-2"><path class="cls-7" d="M27.33,34.15a1.12,1.12,0,0,0-.5-.12c-.36,0-.82.15-1.59.91a3.82,3.82,0,0,0-.95,1.81,6.73,6.73,0,0,0-1.86.64,2.05,2.05,0,0,0-.77,1s-1.47,1.32-1.44,1.69a3.78,3.78,0,0,0,.46,1.07l.61-.4a8.47,8.47,0,0,1,1.72,0c.3.12.49,1.28.67,2.72a5.92,5.92,0,0,0,2,4.1c1.29.92,2.64.67,2.94,1.29a4.76,4.76,0,0,1,.31,1.71s.21,1-.19,1.47-1.16,1.17-1.16,1.17l1.53-.1a.37.37,0,0,1,0-.33c.09-.22.55-1,.55-1l.06-1.59s0-1.16.52-1.28.74.52.92.89a10.72,10.72,0,0,1,.43,1.53s.06.79-.22.95a5.25,5.25,0,0,0-.82.79L31.7,53l.58-.61-.12-1.81a15.59,15.59,0,0,1,.21-1.83A5.09,5.09,0,0,1,34,48.23l1.86-.44a9.35,9.35,0,0,0,2,.4,11.22,11.22,0,0,0,2-.36s.92.24,1,.64a5.78,5.78,0,0,1-.33,1.84,4.56,4.56,0,0,0-.55.58,3.81,3.81,0,0,0-.56,1s1.11-.06,1.23-.43.37-.52.46-.85,1-2.33,1-2.33l-.52-1.07a7,7,0,0,1,1.77-1,6.29,6.29,0,0,1,2.27,1.65,4.39,4.39,0,0,1-.07,1.62,1,1,0,0,1-.45.55c-.34.15-1,1.38-1,1.38l1-.06a3,3,0,0,1,.27-.65,3.13,3.13,0,0,1,.61-.64,22.66,22.66,0,0,1,.46-2.63c.19-.43-.55-1-.55-1l-.25-.58.86-.55a6.05,6.05,0,0,0,.56-2.88c.09-1.74-.43-2-2.39-4s-3.61-1.59-3.77-1.56-7.13,1.78-7.56,1.71-2.29,0-2.29,0A4.41,4.41,0,0,1,30,38.15c-.6-.36-2.9-1.25-2.9-1.25a1.89,1.89,0,0,1,0-1.59,1.55,1.55,0,0,1,1.72-1,.87.87,0,0,1,.39,1.41c-.49.64-1.35-.4-1.35-.4a1.46,1.46,0,0,0,.77,1.1c.64.24,1.53-.43,1.62-1.28s-.86-1.26-1.62-1.47a1,1,0,0,0-.3,0,1.35,1.35,0,0,0-1,.5"/></clipPath><linearGradient id="linear-gradient-8" x1="-587.35" y1="-3805.16" x2="-587.09" y2="-3805.16" gradientTransform="matrix(-85.08, 0, 0, 85.08, -49927.89, 323791.92)" gradientUnits="userSpaceOnUse"><stop offset="0" stop-color="#efb81d"/><stop offset="0.06" stop-color="#efb81d"/><stop offset="0.21" stop-color="#e4ae1e"/><stop offset="0.48" stop-color="#c59520"/><stop offset="0.83" stop-color="#946b23"/><stop offset="0.95" stop-color="#825c24"/><stop offset="1" stop-color="#825c24"/></linearGradient><clipPath id="clip-path-3"><path class="cls-7" d="M60.63,30.53a4.21,4.21,0,0,0-1,.48c-.4.28-.32,1.15-.32,1.15a1.29,1.29,0,0,1,.24-.55A1.13,1.13,0,0,1,60.7,31c.07,0,.11,0,.13,0s.51.28.37.74A10.25,10.25,0,0,0,61,34.61c0,1.11-.43,1.51-1.46,3.35a8.39,8.39,0,0,1-4,3.82,24.93,24.93,0,0,0-5,2.34,13.4,13.4,0,0,0-2.63,5.06,4,4,0,0,1-1.37,2.38l.66,1s.65-1.77.88-2.57a15.32,15.32,0,0,1,.55-2.28c.25-.43.82-.72,1.11-.41s-.15,2.09-.23,2.32S47.8,53,47.8,53l-.71,3.31.62,1,0,.66,1.12-.58-.77-.62a7,7,0,0,1,.06-1.89,1.91,1.91,0,0,1,.68-1.2,16.26,16.26,0,0,0,1.4-2.86.45.45,0,0,1,.63.26c.14.46-.83,2-.83,2l1.75,1.54a3.17,3.17,0,0,0-.15.74,1,1,0,0,0,.29.58l1.48-.66a.9.9,0,0,1-.51-.12c-.26-.13-.26-.63-.26-.63l-.8-1a2.71,2.71,0,0,1,0-1.51,14.24,14.24,0,0,1,1.91-3.58c.34-.46,2.6-.51,3.69-1s1.28-1,1.6-1,.31.49.34.63.35,3.51.35,3.51l-.29,1.29.91-.4-.11-.52a14.57,14.57,0,0,1,.14-1.71c.12-.57.38-2.17.41-2.51a3.51,3.51,0,0,1,.34-1.77A18,18,0,0,0,62.2,41c.26-1.4.63-5.26.69-5.68a.85.85,0,0,1,1-.55c.28.14.06.8.06.8s.08,0,.34-.4a1.57,1.57,0,0,0,0-1.11,3.62,3.62,0,0,0,.23-.37,5.77,5.77,0,0,0,.19-1.09,1.81,1.81,0,0,1-.68-.11A2.8,2.8,0,0,1,63,31.64,3.26,3.26,0,0,0,62,31l-.11-.83-.15.6A6.3,6.3,0,0,0,61,30.3a2.3,2.3,0,0,0-.91-.19.76.76,0,0,1,.51.42m-.8-.43c-.19,0-.19,0-.08,0h.37l-.19,0h-.1"/></clipPath><linearGradient id="linear-gradient-9" x1="-578.13" y1="-3841.05" x2="-577.86" y2="-3841.05" gradientTransform="matrix(0, 104.91, 104.91, 0, 403017.48, 60681.31)" gradientUnits="userSpaceOnUse"><stop offset="0" stop-color="#eeaf1f"/><stop offset="0.07" stop-color="#eeaf1f"/><stop offset="0.22" stop-color="#e9ab1f"/><stop offset="0.41" stop-color="#d99f20"/><stop offset="0.63" stop-color="#c08c21"/><stop offset="0.85" stop-color="#9d7123"/><stop offset="1" stop-color="#825c24"/></linearGradient><clipPath id="clip-path-4"><path class="cls-7" d="M30.27,10.38a3.1,3.1,0,0,1-.68,1.39,65.65,65.65,0,0,1-6.9,5.81c-1.66,1-6,3.52-7.15,4.32s-2.74,1.31-2.23,3.48a43.18,43.18,0,0,0,1.86,6.55,2.24,2.24,0,0,0,1.57,1L18.26,36l.14.83.77,1L20.54,37a9.2,9.2,0,0,1-1.23-.91,17.22,17.22,0,0,1-.82-2.18s.25-1.68.34-1.85.42.34.6.57,1.63,1.6,1.83,1.74a3.92,3.92,0,0,1,.51.63l.2.46.77.14,1.12-.86a4.62,4.62,0,0,0-.83-.37,6.92,6.92,0,0,1-2.31-2.48,19.65,19.65,0,0,1-.9-3s.49-1.42,1.24-1.62,2.05-.37,4.42-2.66,3.44-3.34,3.89-3.12,1.46,2,2,2.09,1.14,1.06,1.23,1.23.48,1.05.48,1.05l.78.38L35.46,25a8.14,8.14,0,0,0-1.32-.8,2.23,2.23,0,0,1-.77-.54,13.22,13.22,0,0,0-1.11-1.89,8.68,8.68,0,0,1-.83-1.2A5.39,5.39,0,0,0,31.86,17c-.38-2.2-.72-2.66-.2-3.46a3.51,3.51,0,0,1,1.48-1.4,1.94,1.94,0,0,0,.63-.4l0-.74a6.57,6.57,0,0,1-1.23-.12c-.51-.11-.71-.51-1.11-.48a1.08,1.08,0,0,1-.6-.09V9.81Z"/></clipPath><linearGradient id="linear-gradient-10" x1="-677.32" y1="-3819.78" x2="-677.05" y2="-3819.78" gradientTransform="matrix(0, -69.64, -69.64, 0, -266000.71, -47137.69)" gradientUnits="userSpaceOnUse"><stop offset="0" stop-color="#bc852c"/><stop offset="0.45" stop-color="#bc852c"/><stop offset="0.6" stop-color="#a17226"/><stop offset="0.83" stop-color="#7d591f"/><stop offset="0.96" stop-color="#6f4f1c"/><stop offset="1" stop-color="#6f4f1c"/></linearGradient><clipPath id="clip-path-5"><path class="cls-7" d="M15.57,40.78h0M.68,34S.4,33.72.2,35.81a30,30,0,0,0,.37,6.51,7.11,7.11,0,0,0,.6,2.61s.09-1.15.06-1.52a12.75,12.75,0,0,1-.46-2.89c.09-1,.26-.65.58-.77s.28.49,1,1.58S4.94,42.59,5.57,43s.46.34.57,1.38a10.14,10.14,0,0,0,.35,2.17,3,3,0,0,1,0,1.79,1.84,1.84,0,0,0,.14,1.21L8,50.36a1.29,1.29,0,0,1,0-.46,11.78,11.78,0,0,0-.57-1.66,22.61,22.61,0,0,1,.29-3.49,5.21,5.21,0,0,0,1.36-.6c.78-.45,1.06-2.2,1.84-3.4a1.89,1.89,0,0,1,2.31-.88c.63.14,1.37.28,1.37.28l1,.63s-.07-.06.4-.14A2.44,2.44,0,0,0,17,40a4.76,4.76,0,0,0-.46-.89c-.14-.11-1.34-1.74-1.34-1.74a2.37,2.37,0,0,0-.15-.83c-.17-.48-.68-1.31-.48-1.36s.48-.81.48-.81a1.75,1.75,0,0,1-.74.23c-.34,0-.22-.57-.22-.57a16.24,16.24,0,0,1-2.69.86,18.94,18.94,0,0,1-7-1c-1.6-.8-3-3.43-3-3.43Z"/></clipPath><linearGradient id="linear-gradient-11" x1="-627.89" y1="-3777.02" x2="-627.62" y2="-3777.02" gradientTransform="matrix(-63.68, 0, 0, 63.68, -39967.97, 240567.15)" gradientUnits="userSpaceOnUse"><stop offset="0" stop-color="#bc852c"/><stop offset="0.33" stop-color="#bc852c"/><stop offset="0.51" stop-color="#a47427"/><stop offset="0.83" stop-color="#7e591f"/><stop offset="1" stop-color="#6f4f1c"/></linearGradient><clipPath id="clip-path-6"><path class="cls-7" d="M9.08,55c-1,.92.18,2.74.18,2.74L9.08,58a6.4,6.4,0,0,0,.69.89c.29.25.26.6.74,1.17a4.73,4.73,0,0,0,1.32,1,3.39,3.39,0,0,0,.05,1c.12.52.2,1,.2,1l1.07.86,0-.32s-.54-.54-.52-.89.43-.42.43-.42l.77,0s1.23.77,1.75,1.14.32.55.32.55a3.07,3.07,0,0,0,.91,1.4c.66.51.8.4.8.4s-.54-.55-.52-.89a.41.41,0,0,1,.4-.43,12.07,12.07,0,0,0,1.78.54,14.21,14.21,0,0,0,2.25.49,20.6,20.6,0,0,1,4.77,1.6c.58.4.6,1,1,1.69s.66.6.66.6l.19.74,1.12,0-.51-.32a1.58,1.58,0,0,1-.58-1c-.05-.6-.05-1.31.2-1.37a2.26,2.26,0,0,1,1.49.57c.46.43.12,1.11.34,1.49a.66.66,0,0,0,.63.31l.14.35h1s-1-.46-1.17-1A2.85,2.85,0,0,1,31,67.5c.12-.11.63-.2,2.17-.18a3.57,3.57,0,0,0,2.09-.39,14.82,14.82,0,0,0,2.4-2.4,8.5,8.5,0,0,0,1-2.41,3.17,3.17,0,0,1,.82-1.31c.55-.42,2.49,0,2.49,0a1.52,1.52,0,0,0,.86,0c.34-.14.49-.4.6-.45a7,7,0,0,0,.63-.75l-1.38-1.11c-.48-.41-1.74-1.69-2.08-1.92a6.84,6.84,0,0,0-2-.23.75.75,0,0,1-.26-.48c0-.26-.94-.91-.94-.91l-.31.48-.52.17s-.77-.6-1.2-.86-.4-.46-.4-.46a10.18,10.18,0,0,0-.63.86c-.28.46.46,1.14.46,1.14s.06.23-.74.18A41.87,41.87,0,0,0,28.57,58s-.46.35-1.43-.11a9.35,9.35,0,0,0-3.43-.34,10.41,10.41,0,0,1-2.4-.8l-9.77-3.43A15.68,15.68,0,0,0,9.08,55"/></clipPath><linearGradient id="linear-gradient-12" x1="-623.03" y1="-3813" x2="-622.77" y2="-3813" gradientTransform="matrix(-133.42, 0, 0, 133.42, -83083.9, 508809.6)" gradientUnits="userSpaceOnUse"><stop offset="0" stop-color="#bc852c"/><stop offset="0.33" stop-color="#bc852c"/><stop offset="1" stop-color="#75531f"/></linearGradient><clipPath id="clip-path-7"><path class="cls-7" d="M17.83,41.93c.06.23.17.76.22.89a.75.75,0,0,1,0,.68,2.51,2.51,0,0,1-1.08.88,4.22,4.22,0,0,0-1.54,1.09,2.73,2.73,0,0,1-.21.46l-1-.12L13.8,46a2.83,2.83,0,0,0-.65-.4c-.15,0-.12.56-.12.56l.14.32a3.94,3.94,0,0,1,1,0,6.63,6.63,0,0,0,1.26.34,1.66,1.66,0,0,1,.62.17,14.21,14.21,0,0,0,.12,2c.14.92.77,1.66.74,2.09a.93.93,0,0,1-.37.66,2.14,2.14,0,0,1-.88.14,5.09,5.09,0,0,1-1.32-.23l-.49-.34.06.48.89.26a2.53,2.53,0,0,1,.8.29c.2.17.14.31.14.31s-.08.29-.6.35a1.59,1.59,0,0,1-.91-.2l0,.51a8.29,8.29,0,0,0,1.57.09.47.47,0,0,1,.46,0,2.66,2.66,0,0,0,1.23.34c.71,0,2,0,2.48-.05A2.88,2.88,0,0,1,21,54a1.22,1.22,0,0,0,.42-.89,21.88,21.88,0,0,0-1-3.69,20.21,20.21,0,0,1-.35-4.08c.06-.4.15-1.32.15-1.57a1.3,1.3,0,0,1,.2-.57l.06-.63-.6,0s-.75-.39-.95-.51-.63-.6-.86-.6-.31.32-.25.55"/></clipPath><linearGradient id="linear-gradient-13" x1="-635.75" y1="-3709.34" x2="-635.49" y2="-3709.34" gradientTransform="matrix(-31.77, 0, 0, 31.77, -20174.37, 117881.25)" gradientUnits="userSpaceOnUse"><stop offset="0" stop-color="#75531f"/><stop offset="0.67" stop-color="#bc852c"/><stop offset="1" stop-color="#bc852c"/></linearGradient><clipPath id="clip-path-8"><path class="cls-7" d="M40.2,8.5c-.83.11-.71.68-.71.68s-.14.11.23.2.42,0,.42,0-.54.06-.28-.28.77-.18.77-.18l.11.38a.52.52,0,0,0-.45.31,1.41,1.41,0,0,0-.15.54,4.35,4.35,0,0,0-1.08.38,1,1,0,0,1-.71.11s-2.55-.32-2.92.17a5.47,5.47,0,0,0-1.23,2.4,5.42,5.42,0,0,0,.74,2.57,2.78,2.78,0,0,0,1,.54l0,.52a1.21,1.21,0,0,0-.17.6,15.38,15.38,0,0,0,.77,1.74l.34.43.37.06.26.34.68-.2A2.18,2.18,0,0,1,37,19.21a4.27,4.27,0,0,1-.78-1.66c0-.37.37-1.68.86-1.66a3.07,3.07,0,0,1,1.17.52v.86s1,1.11,1.09,1.28a1.83,1.83,0,0,0,.34.35s.35.08.4.2a.93.93,0,0,1,.08.28l.6-.31a5.59,5.59,0,0,0-.91-.55c-.4-.16-1-1.4-1-1.4s-.08-.83.28-.85a1,1,0,0,1,.26,0,1.27,1.27,0,0,0,.8-.18c.71-.32,1-.69,1.86-.6a2,2,0,0,1,1.34.71L44.26,18l.8.66.25-.12-1.05-.91s-.69-1.14-.49-1.72.6-.25.6-.25l1.15,1.94.94.69.52-.2a5.5,5.5,0,0,1-1.49-.89c-.23-.34-1-1.37-.92-1.83a1,1,0,0,1,.49-.74c.25-.2.46-.77-.06-1.55s-1.6-2-1.48-2.39.63-.29.63-.29.28-.15.08-.29a16.06,16.06,0,0,0-2.14-1,3.6,3.6,0,0,0-.8-.11.94.94,0,0,0-.88-.5l-.21,0"/></clipPath><linearGradient id="linear-gradient-14" x1="-628.81" y1="-3753.62" x2="-628.55" y2="-3753.62" gradientTransform="matrix(-48.17, 0, 0, 48.17, -30241.97, 180820.35)" xlink:href="#linear-gradient-12"/><clipPath id="clip-path-9"><path class="cls-7" d="M52.07,58.22a3.31,3.31,0,0,1-1.63,0l0,0-.33-.15-.35.49-.52,0a4.53,4.53,0,0,1-.79,1.58,22.51,22.51,0,0,0-2.31,2.51,16.53,16.53,0,0,1-5.1,3.67c-1.09.43-4.37,2.28-4.37,2.28s-.17.21-.13.31c.15.34,1.4.52,1.4.52a12.22,12.22,0,0,0,2.75.57,7.8,7.8,0,0,0,1.41,0l1.14.35.79-.22-1.23-.31-.13-.44,2.24.4.74-.49H44.49a4.35,4.35,0,0,1-1.28-.61c-.39-.35.4-.44,1.45-.92s3.06-2,3.85-2.5.7-.62,1.14-.36a2.76,2.76,0,0,0,1.54.09c.31,0,.18.48.18.48s1.53-.79,1.27-.79a3,3,0,0,1-.92-.4l-.79-.56s.17-.11.44-.94-.31-1.81-.22-2a2.07,2.07,0,0,1,1-1.1,6.71,6.71,0,0,0,1.55-1.27l-.5-.53s-.7.18-1.14.26"/></clipPath><linearGradient id="linear-gradient-15" x1="-626.19" y1="-3779.09" x2="-625.93" y2="-3779.09" gradientTransform="matrix(-64.69, 0, 0, 64.69, -40451.88, 244517.56)" xlink:href="#linear-gradient-12"/><clipPath id="clip-path-10"><path class="cls-7" d="M46.41,8.09a.79.79,0,0,0-.76.48,6.19,6.19,0,0,0-1.41.19c-.41.14.18.92.18.92s-.21-.78.45-.7a3.82,3.82,0,0,1,2,.77c.37.41.85.78.52.89a1.51,1.51,0,0,1-.85-.11l-.62.78.19.59s.1-.77.54-.81a4.06,4.06,0,0,1,1.11.14,10,10,0,0,0,1,1.15,5.64,5.64,0,0,1,1.58,1.8c.37.89.82,1.22.12,1.41l-1.19.29-.48.08-.26.52.23.33a.62.62,0,0,1,.69-.59c.21,0,.44,0,.66,0,.51,0,1-.08,1.12.2a2.06,2.06,0,0,1,.19.78s-1.63.37-1.74.41-.19.22-.3.41.26.63.26.63,0-.78.59-.86a5.54,5.54,0,0,1,2.19,0c.37.23,1.54,2.06,2.76,2.39a5.17,5.17,0,0,0,1.89.1,2.42,2.42,0,0,1,1,0c.44.18.77.92.77.92L59,22s.3.33.52.33.37-1,.26-1.7a3.82,3.82,0,0,0-.52-1.29l.19-.51L59,18.74s.19-.82-.11-1a.66.66,0,0,0-.6,0,7.52,7.52,0,0,0-1.7-1.52,2.82,2.82,0,0,1-1.14-1.14s-3.06-3.43-3.65-4.06-.41-.86-1.52-1.41a16.72,16.72,0,0,0-3.86-1.59h0"/></clipPath><linearGradient id="linear-gradient-16" x1="-626.51" y1="-3770.67" x2="-626.25" y2="-3770.67" gradientTransform="matrix(-59.18, 0, 0, 59.18, -37017.49, 223165.14)" gradientUnits="userSpaceOnUse"><stop offset="0" stop-color="#f0c11a"/><stop offset="0.06" stop-color="#f0c11a"/><stop offset="0.31" stop-color="#d7aa1c"/><stop offset="0.84" stop-color="#966f22"/><stop offset="1" stop-color="#825c24"/></linearGradient><clipPath id="clip-path-11"><path class="cls-7" d="M58.63,15c.28.33.58.76.58.76l-.55.46-.51,0,.65.63.32-.26a3.57,3.57,0,0,1,1.11.17c.14.15.86,1.32,1.71,2.69s1.92,2.11,1.57,2.85-.73.84-.73.84l-.61-.06.43.54s.91-.23,1.12.09a.65.65,0,0,1,0,.83,1,1,0,0,1-.51.4l.42.57s.17-.77.63-.72.54.34.54.34.77-.8.75-1.17a28.06,28.06,0,0,0-2-4.2c-.28-.31-2.79-3.8-2.79-3.8l-2.6-2.54A5.19,5.19,0,0,0,58.63,15"/></clipPath><linearGradient id="linear-gradient-17" x1="-633.66" y1="-3687.12" x2="-633.4" y2="-3687.12" gradientTransform="matrix(-27.79, 0, 0, 27.79, -17544.48, 102487.26)" gradientUnits="userSpaceOnUse"><stop offset="0" stop-color="#f0c11a"/><stop offset="0.06" stop-color="#f0c11a"/><stop offset="0.29" stop-color="#daad1c"/><stop offset="0.76" stop-color="#a17821"/><stop offset="1" stop-color="#825c24"/></linearGradient><clipPath id="clip-path-12"><path class="cls-7" d="M67.3,27.69l0-.07,0,.07m-2.71-.07.74.83s1.22,3,.79,3.06-1.92-3.27-1.92-3.27l-.49.47A7.52,7.52,0,0,1,65,29.94c.22.39,1,2,1,2s-.61,1.83-.87,2.81a12.61,12.61,0,0,0,.44,4.42,7.2,7.2,0,0,1,0,2.17L64.8,42l-.47.13a.89.89,0,0,0-.48.48,1.55,1.55,0,0,0,0,.88,14.52,14.52,0,0,0,1.48.74c.57.22.57-.22.57-.22l.44.44.12-.57.58.05-.31-1.05.52-.88A18.72,18.72,0,0,0,69,34.63a11,11,0,0,0-1.72-6.94,1.43,1.43,0,0,1,.3,1,2.12,2.12,0,0,0,.09,1,2.27,2.27,0,0,1-.92,1.23c-.65.35-.39-.44-.57-.88s-1-2.7-1-2.7Z"/></clipPath><linearGradient id="linear-gradient-18" x1="-638.57" y1="-3628.54" x2="-638.3" y2="-3628.54" gradientTransform="matrix(-20.06, 0, 0, 20.06, -12741.08, 72826.93)" xlink:href="#linear-gradient-13"/><clipPath id="clip-path-13"><path class="cls-7" d="M63.32,51.66a.62.62,0,0,1-.31.79,1.53,1.53,0,0,1-.87.16,2.11,2.11,0,0,0-1.15.23c-.75.44-1.32,1.53-2,1.84a2.55,2.55,0,0,1-1.44.12l-.35-.74-.35.44a1.22,1.22,0,0,0,.7.62c.44.08.92,0,.87.25s-.52.53-.52.53L56.4,56l0-.75-.43.88a2.23,2.23,0,0,0,1.13.26c.61,0,.66.16.35.85s-1.26,1.44-1.61,2-.44.75-.44.75l-.7.21-.7-.48L54,59.24l-.47.57.82.61s.87-.22.82,0a1.32,1.32,0,0,1-1,1.18c-.89.39-1.24.22-1.24.22l-.61-.09,0-.65-.48.7a.9.9,0,0,0,.92.34L53.91,62l.13.57a1.53,1.53,0,0,0,1.23,0,8.21,8.21,0,0,0,3.36-2.7A42.49,42.49,0,0,1,61.23,56c.83-.92,1.61-1.84,1.61-1.84l.44-.13,0-.52.39-.3,0-.62s.61-1.13.3-1.57a.19.19,0,0,0-.15-.1c-.24,0-.42.75-.42.75"/></clipPath><linearGradient id="linear-gradient-19" x1="-628.3" y1="-3751.03" x2="-628.03" y2="-3751.03" gradientTransform="matrix(-45.59, 0, 0, 45.59, -28580.19, 171067.31)" xlink:href="#linear-gradient-12"/><clipPath id="clip-path-14"><rect class="cls-7" x="75.48" y="61.73" width="121.48" height="21.78"/></clipPath><clipPath id="clip-path-15"><path class="cls-8" d="M102.6,70.06c0-3.31.94-5,2.15-6.07,1.73-1.51,4.19-1.57,5.43-1.57a7.42,7.42,0,0,1,5,1.65c2,1.65,2.27,4.35,2.27,6.92v2.45c0,3.49,0,4.13,0,4.86s.22,1.13.87,1.24a3.5,3.5,0,0,0,.7.08c.26,0,.41.09.41.25s-.17.21-.5.21c-.91,0-2.5,0-2.77,0,0,0-1.62,0-2.84,0-.32,0-.48,0-.48-.21s.13-.25.4-.25a4.27,4.27,0,0,0,.86-.08c.76-.22,1-.46,1-1.24s.06-1.37.06-4.86V70.55c0-2.34-.06-4.34-1.38-5.58a4.47,4.47,0,0,0-3.18-1.22,4.56,4.56,0,0,0-3,.92c-1.16.91-1.81,2.21-1.81,5.56v3.21c0,3.49,0,4.13,0,4.86s.25,1.13.87,1.24a3.58,3.58,0,0,0,.7.08c.24,0,.38.09.38.25s-.16.21-.52.21c-.86,0-2.45,0-3,0s-2.29,0-3.56,0c-.35,0-.51,0-.51-.21s.13-.25.4-.25a4.55,4.55,0,0,0,.92-.08c.75-.22,1-.43,1-1.24s0-1.37,0-4.86Z"/></clipPath><mask id="mask" x="100.22" y="62.42" width="19.27" height="17.66" maskUnits="userSpaceOnUse"><rect class="cls-1" x="100.22" y="62.42" width="19.27" height="17.66"/></mask><linearGradient id="linear-gradient-20" x1="-555.53" y1="-3841.02" x2="-555.27" y2="-3841.02" gradientTransform="matrix(0, 66.55, 66.55, 0, 255742.46, 37034.87)" gradientUnits="userSpaceOnUse"><stop offset="0" stop-color="#6d6e71"/><stop offset="0.05" stop-color="#6d6e71"/><stop offset="1" stop-color="#6d6e71"/></linearGradient><clipPath id="clip-path-16"><path class="cls-8" d="M124.78,73.11c0,3.61,0,4.29,0,5s-.27,1.06-1,1.28a3.92,3.92,0,0,1-.94.09c-.25,0-.41.08-.41.25s.19.22.54.22c1.24,0,2.75,0,3.24,0,.81,0,3,0,3.7,0a8.15,8.15,0,0,0,4.51-1A4.22,4.22,0,0,0,136,75.71c0-1.76-1-3.32-3.29-5.25,2.1-2.69,3.78-4.84,5.21-6.32a4.35,4.35,0,0,1,2.53-1.57,2.44,2.44,0,0,1,.57,0,.29.29,0,0,0,.3-.26c0-.2-.16-.25-.46-.25h-2.26a5,5,0,0,0-2.6.48c-1,.53-1.92,1.65-3.24,3.49-.95,1.29-1.94,2.88-2.24,3.25a.51.51,0,0,1-.43.16l-2.13.06a.18.18,0,0,1-.19-.2v-.33c0-2.21,0-4.06.13-5.06.09-.71.19-1.15.92-1.27a9.72,9.72,0,0,1,1.16-.07.29.29,0,0,0,.3-.26c0-.17-.19-.25-.49-.25-1.37,0-3.34.08-3.7.08s-2-.08-2.91-.08c-.3,0-.46.08-.46.25s.08.26.38.26a3.87,3.87,0,0,1,.84.07c.48.12.62.56.7,1.27.11,1,.11,2.87.11,5.06Zm3-1.84c0-.25,0-.34.22-.42a6.17,6.17,0,0,1,1.8-.23,2.28,2.28,0,0,1,1.67.4A4.06,4.06,0,0,1,133,74.54c0,3.36-2.21,4.22-3.61,4.22a7.87,7.87,0,0,1-1.4-.08c-.17-.06-.22-.14-.22-.34Z"/></clipPath><mask id="mask-2" x="122.37" y="62.01" width="18.98" height="17.99" maskUnits="userSpaceOnUse"><rect class="cls-2" x="122.37" y="62.01" width="18.98" height="17.99"/></mask><linearGradient id="linear-gradient-21" x1="-556.7" y1="-3841.99" x2="-556.43" y2="-3841.99" gradientTransform="matrix(0, 67.8, 67.8, 0, 260628.39, 37807.35)" xlink:href="#linear-gradient-20"/><clipPath id="clip-path-17"><path class="cls-8" d="M143.93,73.11c0,3.61,0,4.29,0,5a1.16,1.16,0,0,1-1,1.28,4,4,0,0,1-.95.09c-.24,0-.4.08-.4.25s.19.22.54.22c1.24,0,2.75,0,3.21,0,1.19,0,2.75,0,3.56,0,4.3,0,5-2.29,5-3.55a5.25,5.25,0,0,0-2.67-4.16c1.94-.65,4.38-2.35,4.38-5.15,0-2.55-2-5.18-6.32-5.18-.28,0-1.08,0-1.89.08s-1.65.06-2,.06-.78,0-1.35,0-1.16-.05-1.65-.05c-.29,0-.46.08-.46.25s.09.26.38.26a3.87,3.87,0,0,1,.84.07c.49.12.62.56.7,1.27.11,1,.11,2.87.11,5.06Zm3.08-.38c0-.2.08-.23.16-.26a4.78,4.78,0,0,1,1.11-.08,3,3,0,0,1,1.86.42,3.16,3.16,0,0,1,1.08,2.51c0,1.6-.92,3.59-3,3.59a5.55,5.55,0,0,1-1-.06c-.16,0-.21-.14-.21-.39Zm0-7c0-1.57.08-2,.84-2.35a4.21,4.21,0,0,1,1.7-.28c1.27,0,2.91.73,2.91,3.35a5.27,5.27,0,0,1-2.24,4.23,3.25,3.25,0,0,1-2.05.61h-1c-.08,0-.13,0-.13-.16Z"/></clipPath><mask id="mask-3" x="141.53" y="61.95" width="14.07" height="18.04" maskUnits="userSpaceOnUse"><rect class="cls-3" x="141.53" y="61.95" width="14.07" height="18.04"/></mask><linearGradient id="linear-gradient-22" x1="-556.87" y1="-3842.68" x2="-556.61" y2="-3842.68" gradientTransform="matrix(0, 68, 68, 0, 261444.71, 37928.57)" xlink:href="#linear-gradient-20"/><clipPath id="clip-path-18"><path class="cls-8" d="M162.87,68c-.13,0-.16,0-.21-.17l-1.28-3.2a4.39,4.39,0,0,1-.35-1.45c0-.42.22-.66.95-.66h.35c.3,0,.35-.12.35-.26s-.13-.25-.37-.25c-.79,0-1.9.08-2.65.08-.25,0-1.51-.08-2.76-.08-.29,0-.43.05-.43.25a.25.25,0,0,0,.27.26l.7,0c1.08.17,1.49.9,2,2.09l6.22,15c.27.67.46,1,.69,1s.47-.22.71-.75c.56-1.32,4.53-11,6.05-14.65.91-2.14,1.59-2.45,2-2.56a6.08,6.08,0,0,1,.89-.07c.22,0,.33-.09.33-.26s-.14-.25-1-.25-2.57,0-4.56.05c-.43,0-.71,0-.71.2s.06.23.3.26a.36.36,0,0,1,.22.52l-1.84,4.79a.22.22,0,0,1-.24.17Zm5.07,1.31c.11,0,.14.06.11.14l-2.24,6c0,.08-.06.22-.11.22s-.11-.14-.13-.22l-2.29-6c-.06-.11,0-.17.08-.17Z"/></clipPath><mask id="mask-4" x="156.47" y="62.01" width="19.85" height="18.55" maskUnits="userSpaceOnUse"><rect class="cls-4" x="156.47" y="62.01" width="19.85" height="18.55"/></mask><linearGradient id="linear-gradient-23" x1="-558.59" y1="-3843.45" x2="-558.33" y2="-3843.45" gradientTransform="matrix(0, 69.91, 69.91, 0, 268851.31, 39111.61)" xlink:href="#linear-gradient-20"/><clipPath id="clip-path-19"><path class="cls-8" d="M180.75,75h.08c.47-.42,3-3.3,5.57-5.87s5.44-5.43,6.92-6.86a1.44,1.44,0,0,1,1-.5c.19,0,.37.22.37.76l.28,15c0,1.35.21,1.77.86,2a2.17,2.17,0,0,0,.73.09c.27,0,.41.11.41.25s-.22.22-.55.22c-1.16,0-2,0-2.32,0-.52,0-1.79,0-3,0-.35,0-.59,0-.59-.22s.08-.25.37-.25a3.85,3.85,0,0,0,1.24-.14c.57-.22.79-.64.81-2.1l.25-10.57H193c-.35.33-3.51,3.69-5.12,5.34-3.46,3.5-7,7.27-7.31,7.58s-.73.79-1,.79-.41-.34-.41-.82L179,65.51c0-2.07-.11-2.72-.73-2.88a4.45,4.45,0,0,0-1.08-.11c-.21,0-.38-.12-.38-.26s.22-.25.54-.25c1.21,0,2.35.08,2.57.08.43,0,1.53-.08,3.07-.08.33,0,.54.05.54.25s-.13.26-.4.26a3.85,3.85,0,0,0-1.24.16c-.46.17-.76.73-.81,2.57Z"/></clipPath><mask id="mask-5" x="176.76" y="61.73" width="20.19" height="18.69" maskUnits="userSpaceOnUse"><rect class="cls-5" x="176.76" y="61.73" width="20.19" height="18.69"/></mask><linearGradient id="linear-gradient-24" x1="-559.03" y1="-3844.26" x2="-558.77" y2="-3844.26" gradientTransform="matrix(0, 70.43, 70.43, 0, 270927.35, 39432.72)" xlink:href="#linear-gradient-20"/><clipPath id="clip-path-20"><path class="cls-8" d="M92.78,64.4a6.07,6.07,0,0,0-2.08-1.35,13.34,13.34,0,0,0-4.24-.71c-7.91,0-11,5.87-11,10.72,0,4.4,3.15,10.45,11.06,10.45,6.46,0,10.94-3.92,10.94-10.23a10.83,10.83,0,0,0-4.7-8.88M85.93,82.21c-3.55,0-6.7-2.26-6.7-8.53,0-6.42,3.88-10,8.23-10,2.16,0,6.24,1,6.24,8.85,0,6.53-4,9.66-7.77,9.66"/></clipPath><mask id="mask-6" x="75.48" y="62.34" width="22" height="21.16" maskUnits="userSpaceOnUse"><rect class="cls-6" x="75.48" y="62.34" width="22" height="21.16"/></mask><linearGradient id="linear-gradient-25" x1="-566.16" y1="-3840.87" x2="-565.89" y2="-3840.87" gradientTransform="matrix(0, 79.77, 79.77, 0, 306468.81, 45224)" xlink:href="#linear-gradient-20"/></defs><title>Asset 6</title><g id="Layer_2" data-name="Layer 2"><g id="Layer_1-2" data-name="Layer 1"><g class="cls-9"><rect class="cls-10" x="21.87" y="9.63" width="42.3" height="42.3" transform="translate(-9.16 39.44) rotate(-45)"/></g><g class="cls-11"><rect class="cls-12" x="17.21" y="26.97" width="32.95" height="32.95" transform="translate(-20.85 36.55) rotate(-45)"/></g><g class="cls-13"><rect class="cls-14" x="46.43" y="30.09" width="18.34" height="27.83"/></g><path class="cls-15" d="M68.08,44s-.57,1.58-.83,2.05a2.4,2.4,0,0,0-.35,1.49c0,.65,0,2.08,0,2.08s1-2.82,1.09-3.3a6,6,0,0,1,0-1.27A3.32,3.32,0,0,0,68.08,44"/><g class="cls-16"><rect class="cls-17" x="7.3" y="6.03" width="33.67" height="35.65" transform="translate(-8.69 15.26) rotate(-30)"/></g><g class="cls-18"><rect class="cls-19" y="30.41" width="17.03" height="19.95"/></g><g class="cls-20"><rect class="cls-21" x="8.11" y="53.27" width="35.98" height="16.89"/></g><g class="cls-22"><rect class="cls-23" x="13" y="41.38" width="8.48" height="12.57"/></g><g class="cls-24"><rect class="cls-25" x="34.14" y="8.48" width="12.83" height="11.5"/></g><g class="cls-26"><rect class="cls-27" x="36.52" y="57.96" width="17.2" height="12.5"/></g><g class="cls-28"><rect class="cls-29" x="43.83" y="8.09" width="16.04" height="14.22"/></g><g class="cls-30"><rect class="cls-31" x="58.15" y="13.41" width="7.4" height="12.09"/></g><path class="cls-15" d="M7.83,23.52a6.47,6.47,0,0,1,.81,2c0,.58,0,1.19.23,1.27s.9-.37,1.07-.63.06-.87.29-1,.47.44.47.44l.11.4s.64.09.73.29-.15.61-.15.61a5.1,5.1,0,0,0-.87,1.13c-.17.43-.41,1.36-.64,1.83a4.23,4.23,0,0,0-.25.58l.43.55-.64-.17s-.31,1.51-.84,1.89a2.5,2.5,0,0,1-.81.43,3.09,3.09,0,0,0,.93-1.16c.38-.78.23-.64.23-.64A3.67,3.67,0,0,1,7.8,32.5a.75.75,0,0,1-.9-.12s1.1,0,1.45-.64.2-1.16,0-1.31-.37-.87-.78-1.36a2.81,2.81,0,0,0-1.37-1.14c-.75-.29-1.45-.91-2-.8A3.93,3.93,0,0,0,3,27.7l-.63.5s.06-1.68,0-1.86.46-.52.46-.52a5.23,5.23,0,0,1,.46-2c.41-.54.82-1,.82-1s-.09-.85.18-1.16.4-.35.4-.35a2.33,2.33,0,0,0-.44,1c0,.5-.06.88-.06.88a9.92,9.92,0,0,1,.94-.7,7.37,7.37,0,0,1,1.3-.67S7.71,19,7.92,18.62l1.13-2a32.88,32.88,0,0,0-1.57,3.74c-.09.63.26,1,.29,1.56s.06,1.57.06,1.57"/><path class="cls-15" d="M11.42,14.37a1.15,1.15,0,0,0-.66,0,1,1,0,0,1,.13-.31,3,3,0,0,1,.81-.64,5.84,5.84,0,0,0,.85-.69,1.22,1.22,0,0,1,.61,0s-.65.41-.54.93.39.7.92.42a13.5,13.5,0,0,0,1.86-1.83c.21-.24,1.8-1.13,2.39-1.58S19.45,9.13,20.35,9s3.17-.48,3.59-.22.23.3.23.3S24,8.74,23.83,9s-.23,1.18.06,1.33a9.07,9.07,0,0,0,1.28.42l.75,1.48.45.27a2.89,2.89,0,0,0-.23.6c0,.18-.86.66-.86.66a1.84,1.84,0,0,1,.09-.7,1,1,0,0,0-.16-1,4,4,0,0,0-.91-.79s-1.76-.33-1.94-.09-.07.5.13.79a1.39,1.39,0,0,0,.35.37S22.6,14,22.6,14.06s.07.68.07.68a4.34,4.34,0,0,0-.2.55,5.9,5.9,0,0,1-1,.78,2.12,2.12,0,0,1,.2-.9c.22-.39.57-.41.55-1.07s-.09-1.63-.35-1.82-.35.13-.85-.16-.53-.54-.88-.5-.81.93-1.79,1.5-1.5.79-1.52,1.25A2,2,0,0,0,18,15.89c.61.25,1.23.79,1.23,1.06a1.67,1.67,0,0,1-.16.59l-1.15.89s.26-.87.32-1.22.24-.33-.15-.46a15.32,15.32,0,0,0-1.54-.7c-.55-.13-.57.11-.57.11a8.45,8.45,0,0,0,.12,1.95c.18.35.35.65.35.65s0,.26.07.46a1.7,1.7,0,0,0,.13.35l-.89.87a1.06,1.06,0,0,1-.07-.57,2.18,2.18,0,0,1,.35-.8,11.26,11.26,0,0,1-.44-1.14,4.94,4.94,0,0,0-.54-1.77,1.63,1.63,0,0,0-1.4-.7c-.46.06-1.27.66-2,.52s-.48-.41-.33-.89.29-.61.05-.72"/><path class="cls-15" d="M9.79,18.82a8.42,8.42,0,0,1,1-1.48,5.36,5.36,0,0,1,1.32-.69s.46,1.06.58,1.41.26.58.49.58.58,0,.6-.23a5.35,5.35,0,0,0,0-.59s.07.77.23.79.49-.3.35-.55a2.94,2.94,0,0,0-.3-.45s.57.7.46,1a3.4,3.4,0,0,0-.16.55.63.63,0,0,1,.12.56,3.56,3.56,0,0,0-.19.59s-.07.37-.21.43-.35-.22-.35-.22l-.44,0s-.18,0-.69.61-1.28,1.34-1.47,1.29-.64-.19-.64-.19l-.33.49.1-.6-.79.65a1.6,1.6,0,0,0,.63-1.09c0-.63-.17-.79-.17-.79s-.16.21-.37-.11-.13-.42-.13-.42a5.27,5.27,0,0,1-.77.44c-.09,0,1-.47.88-.86s-.18-.3-.18-.3L8.62,20s.76-.67.87-.74a1.52,1.52,0,0,0,.3-.42"/><g class="cls-32"><rect class="cls-33" x="63.71" y="27.32" width="5.5" height="17.12"/></g><g class="cls-34"><rect class="cls-35" x="51.88" y="50.91" width="12.32" height="12"/></g><path class="cls-15" d="M47.65,68.78l1.08,0,5.88-3.28-2.43.61.44-.52a4.85,4.85,0,0,0,2.21-.92c1-.78,1.92-2,2.66-2.56a15.48,15.48,0,0,0,1.57-1.44s3.26-4.6,3.69-5.13S64.33,54,64.33,54s1.53-3,1.61-3.28a10.35,10.35,0,0,1,.48-1s-.09.83-.09,1-1.61,3.36-1.61,3.36a2.83,2.83,0,0,0-.83.7c-.39.48-2.23,3.08-2.23,3.08s.25,0-.56,1.35A23,23,0,0,1,56.66,64c-1.44,1.18-7.53,5.1-8.36,5.28a2.66,2.66,0,0,1-1.31,0Z"/><path class="cls-36" d="M3.77,49.8l.06,1.49-.36.25a9.52,9.52,0,0,0,1.37,3.31,18.53,18.53,0,0,0,2.43,2.82l.61.58.08.44.52.09.39-.28s-1.38-.72-1.35-1.27a1.63,1.63,0,0,1,.66-1s-.28.33-.66-.58a1.44,1.44,0,0,1,.22-1.54L7.41,52,7,51.43s.55,1.9.25,2.29a1.76,1.76,0,0,1-.69.53,10.29,10.29,0,0,0-.83-2.62A3.46,3.46,0,0,0,5,50.72s1.17,2.37,1,2.81-.25.69-.25.69l-.41.08a3.37,3.37,0,0,0-.67-1.07A4.12,4.12,0,0,1,4,52.45l.08-1.68Z"/><path class="cls-15" d="M36.85,5.13c-.07-.09.64.85,1.45.59s1.11-.37,1.11-.37l2.8,1.43-3.16.48L37.63,6a.66.66,0,0,1-.73-.28c-.25-.41,0-.52,0-.59"/><path class="cls-15" d="M34,4.32c.17.08,3,2.8,3,2.91s-.25.24-.37.3-1.75.12-1.89.16a.79.79,0,0,0-.25.13l-1.34-.06s1.42.14,1.55-.39a1,1,0,0,0-.16-.87s-.33-.48-.55-.84a2.08,2.08,0,0,1-.25-.77l-1.1.1.06-.2.61-.1,0-.35a1.49,1.49,0,0,1,.63,0"/><path class="cls-15" d="M31.65,4.56a1.83,1.83,0,0,0-.49,1.18c0,.69.32,1.73-.1,2A5.73,5.73,0,0,1,29,8s-.14-.06.16-.92a5,5,0,0,1,.53-1.2l.66-1s.24-.35.5-.39a3.37,3.37,0,0,1,.82.08"/><path class="cls-15" d="M28.92,4.77c.22-.08-.78.48-.7.78a.38.38,0,0,0,.39.27l-.55.93L28.11,6s-.33.35-.36-.1.95-1.09,1.17-1.17"/><path class="cls-15" d="M25.78,5.81a.64.64,0,0,0-.39.44c-.08.32-.06.66-.28.89s-.16.41-.16.41l.95-.24-.85.91s-1.13-.1-1.52-.1h-.71s.47-1.55.87-1.79a12.47,12.47,0,0,1,1.25-.57Z"/><path class="cls-15" d="M20.74,7c.24,0-.78.31-.88.65a.91.91,0,0,0,0,.57L18.48,8.1S20.51,7,20.74,7"/><path class="cls-15" d="M47.65,6.93l-.54,0L48.67,8.2s.25-.32.79-.06A12.6,12.6,0,0,1,52.41,9.5c.73.64.64.51.64.51A22.41,22.41,0,0,0,50,7.91a14.55,14.55,0,0,0-2.32-1"/><path class="cls-15" d="M38.81,71.54l.24-1.15s-5.92.35-7.39.31a7.2,7.2,0,0,1-2.48-.48l-5.16-1s.52.4,0,.44a17.09,17.09,0,0,1-4.36-1.51c-.4-.37-3.15-2.17-3.15-2.17s-1.93-1.59-2.36-2-3.92-2.76-3.92-2.76a24.61,24.61,0,0,0,8.16,6.75C23.06,70,27.26,71.74,32.69,72s6.12-.48,6.12-.48"/><path class="cls-15" d="M41.8,5.25l0,.51.43,0,.12-.29a5.56,5.56,0,0,1,1.12.39.91.91,0,0,1,.32.29,1.15,1.15,0,0,0-.7-.79,3.51,3.51,0,0,0-1.26-.16"/><polygon class="cls-15" points="36.03 4.11 36.9 4.72 36.54 4.91 36.2 4.86 36.02 5.09 35.47 4.88 36.05 4.67 36.03 4.11"/><path class="cls-37" d="M93.31,32.24c0-1.34,0-2.43,0-3.24s.3-1.4,1-1.53a3.78,3.78,0,0,1,.73-.09c.19,0,.35-.05.35-.21s-.19-.27-.54-.27c-.89,0-2.32.08-3.16.08s-2.51-.08-3.92-.08c-.37,0-.56.05-.56.27s.16.21.4.21a5.1,5.1,0,0,1,1.06.09c.89.18,1.13.61,1.16,1.53s0,1.84,0,3.19v2.54c0,.46-.1.81-.51,1a5.91,5.91,0,0,1-2.3.3c-5.69,0-9.39-4.35-9.39-10.15,0-3.32,1-5.34,2.48-6.61a7.8,7.8,0,0,1,5.35-1.68,8.6,8.6,0,0,1,6,2.11,3.81,3.81,0,0,1,.92,2.24c0,.22.08.35.27.35s.3-.13.3-.57a37.92,37.92,0,0,1,.18-4.42c0-.19,0-.3-.37-.33a20.44,20.44,0,0,1-2.14-.29,32,32,0,0,0-4.77-.43A13.07,13.07,0,0,0,78.67,18,10.1,10.1,0,0,0,74,26.82c0,7.45,5.86,10.57,12.47,10.57a15.37,15.37,0,0,0,6.5-1.2c.33-.19.36-.25.36-1Z"/><path class="cls-37" d="M104.12,26.3c0-3.48,0-4.13,0-4.86s.25-1.13.89-1.24a5.74,5.74,0,0,1,.93-.08c.29,0,.43-.08.43-.24s-.17-.22-.52-.22c-.91,0-2.86.06-3.42.06s-2.17-.06-3.27-.06c-.35,0-.51.06-.51.22s.13.24.4.24a3.4,3.4,0,0,1,.78.08c.76.22,1,.46,1,1.24s0,1.38,0,4.86v4.05c0,2.11,0,3.92-.12,4.89-.07.67-.21,1.1-.7,1.21a3.63,3.63,0,0,1-.83.08c-.3,0-.38.14-.38.25s.16.24.46.24c.49,0,1.08,0,1.65-.05s1.07,0,1.35,0c1,0,2,0,3.15.06s2.57.07,4.27.07c1.24,0,1.35-.1,1.51-.62a17.19,17.19,0,0,0,.35-2.64c0-.27-.05-.51-.21-.51s-.24.13-.28.34a2.65,2.65,0,0,1-.59,1.38c-.59.62-1.51.65-2.78.65-1.84,0-2.75-.13-3.16-.48s-.51-1.89-.51-4.84Z"/><path class="cls-37" d="M123.6,37.32c6.13,0,10-4.14,10-9.4s-3.73-8.58-9.71-8.58c-7.21,0-10,5.07-10,9,0,4.08,2.81,9,9.72,9m1-1.24c-4.48,0-7.18-3.73-7.18-8.45,0-5.67,3.11-7.08,5.75-7.08,3.83,0,6.88,3.14,6.88,8.21,0,6.54-3.77,7.32-5.45,7.32"/><path class="cls-37" d="M139.44,30.35c0,2.11,0,3.92-.11,4.89-.08.67-.22,1.1-.7,1.21a3.79,3.79,0,0,1-.84.08c-.3,0-.38.14-.38.25s.16.24.46.24c.48,0,1.08,0,1.64-.05s1.09,0,1.36,0,1.21,0,2,.06,1.62.07,1.89.07c4.38,0,6.32-2.53,6.32-5,0-2.7-2.43-4.35-4.38-5a5.1,5.1,0,0,0,2.68-4c0-1.21-.76-3.43-5.05-3.43-.81,0-2.37.05-3.56.05-.46,0-2-.05-3.22-.05-.35,0-.54.05-.54.22s.17.24.41.24a4.55,4.55,0,0,1,.94.08c.76.22,1,.46,1,1.24s0,1.38,0,4.86Zm3.07-9.2c0-.25.06-.35.22-.38a5.44,5.44,0,0,1,1-.06c2.06,0,3,1.92,3,3.46a3,3,0,0,1-1.07,2.43,3.16,3.16,0,0,1-1.87.4,4.78,4.78,0,0,1-1.11-.08c-.08,0-.16-.05-.16-.24Zm0,7.07c0-.14.06-.16.14-.16h1a3.4,3.4,0,0,1,2,.59A5,5,0,0,1,148,32.73c0,2.54-1.65,3.24-2.92,3.24a4.43,4.43,0,0,1-1.7-.27c-.76-.3-.84-.76-.84-2.27Z"/><path class="cls-37" d="M164,31.24a.23.23,0,0,1,.24.17L166,36a.36.36,0,0,1-.21.51c-.25,0-.3.11-.3.25s.27.16.7.19c2,.05,3.73.05,4.56.05s1-.05,1-.24-.11-.25-.32-.25a6.35,6.35,0,0,1-.9-.08c-.43-.1-1.1-.4-2-2.47-1.51-3.47-5.48-12.86-6.05-14.13-.24-.51-.35-.73-.7-.73s-.43.27-.7.92l-6.21,14.44c-.49,1.16-.89,1.86-2,2l-.7,0a.24.24,0,0,0-.27.25c0,.19.14.24.43.24,1.24,0,2.51-.08,2.75-.08.76,0,1.87.08,2.64.08.25,0,.38-.05.38-.24s-.05-.25-.34-.25h-.36c-.72,0-.94-.24-.94-.64a4,4,0,0,1,.35-1.41l1.26-3.07c.06-.14.09-.17.22-.17ZM158.86,30c-.08,0-.13-.06-.08-.17l2.3-5.8c0-.08,0-.22.13-.22s.08.14.11.22l2.24,5.83c0,.08,0,.14-.11.14Z"/><path class="cls-37" d="M178.23,26.3c0-3.48,0-4.13.06-4.86s.24-1.13.89-1.24a5.59,5.59,0,0,1,.91-.08c.3,0,.44-.08.44-.24s-.16-.22-.51-.22c-.92,0-2.86.06-3.43.06s-2.16-.06-3.27-.06c-.35,0-.51.06-.51.22s.13.24.4.24a3.43,3.43,0,0,1,.79.08c.75.22,1,.46,1,1.24s0,1.38,0,4.86v4.05c0,2.11,0,3.92-.11,4.89-.08.67-.21,1.1-.7,1.21a3.72,3.72,0,0,1-.84.08c-.29,0-.38.14-.38.25s.17.24.46.24c.49,0,1.08,0,1.65-.05s1.08,0,1.35,0c1,0,2,0,3.16.06s2.56.07,4.26.07c1.25,0,1.35-.1,1.51-.62a16,16,0,0,0,.35-2.64c0-.27,0-.51-.21-.51s-.24.13-.27.34a2.59,2.59,0,0,1-.6,1.38c-.59.62-1.5.65-2.78.65-1.83,0-2.75-.13-3.15-.48s-.52-1.89-.52-4.84Z"/><path class="cls-38" d="M94.94,64.34C99.39,67,102.28,68,106.36,68a19.83,19.83,0,0,0,8.56-2c.18-.08.32-.17.32-.32a.25.25,0,0,0-.25-.25,1.6,1.6,0,0,0-.4.14,15,15,0,0,1-5.27.94c-1.83,0-5.42-.3-11.12-3.22L92.78,60.5a10.79,10.79,0,0,0,4.7-8.87c0-6.32-4.48-10.24-10.94-10.24-7.91,0-11.06,6-11.06,10.45,0,4.86,3.07,10.72,11,10.72a13.63,13.63,0,0,0,4.24-.7Zm-7.48-3.13c-4.35,0-8.23-3.57-8.23-10,0-6.26,3.15-8.53,6.69-8.53,3.73,0,7.78,3.13,7.78,9.66,0,7.91-4.08,8.86-6.24,8.86"/><path class="cls-38" d="M102.6,54.84c0,3.32.94,5,2.15,6.07,1.73,1.52,4.19,1.57,5.43,1.57a7.37,7.37,0,0,0,5-1.65c2-1.65,2.27-4.34,2.27-6.91V51.46c0-3.48,0-4.13,0-4.86s.22-1.13.87-1.23a2.92,2.92,0,0,1,.7-.09c.26,0,.41-.08.41-.24s-.17-.22-.5-.22c-.91,0-2.5.06-2.77.06,0,0-1.62-.06-2.84-.06-.32,0-.48.06-.48.22s.13.24.4.24a3.6,3.6,0,0,1,.86.09c.76.21,1,.45,1,1.23s.06,1.38.06,4.86v2.89c0,2.35-.06,4.35-1.38,5.59a4.5,4.5,0,0,1-3.18,1.21,4.55,4.55,0,0,1-3-.91c-1.16-.92-1.81-2.22-1.81-5.56V51.46c0-3.48,0-4.13,0-4.86s.25-1.13.87-1.23a3,3,0,0,1,.7-.09c.24,0,.38-.08.38-.24s-.16-.22-.52-.22c-.86,0-2.45.06-3,.06s-2.29-.06-3.56-.06c-.35,0-.51.06-.51.22s.13.24.4.24a3.85,3.85,0,0,1,.92.09c.75.21,1,.43,1,1.23s0,1.38,0,4.86Z"/><path class="cls-38" d="M124.78,55.51c0,2.11,0,3.92-.12,4.89-.07.68-.21,1.11-.69,1.22a3.79,3.79,0,0,1-.84.08c-.3,0-.39.13-.39.24s.17.25.47.25c.94,0,2.45-.09,2.91-.09s2.32.09,3.7.09c.3,0,.49-.09.49-.25a.27.27,0,0,0-.3-.24,9.7,9.7,0,0,1-1.16-.08c-.73-.11-.83-.54-.92-1.22-.11-1-.14-2.76-.14-4.89v-.32A.18.18,0,0,1,128,55l2.13,0a.54.54,0,0,1,.43.16c.3.36,1.29,1.9,2.24,3.14,1.32,1.78,2.21,2.86,3.24,3.37a5.06,5.06,0,0,0,2.59.47h2.27c.3,0,.46-.06.46-.25a.27.27,0,0,0-.3-.24,2,2,0,0,1-.57-.06A4.47,4.47,0,0,1,138,60.13c-1.44-1.43-3.11-3.51-5.21-6.1C135.06,52.17,136,50.65,136,49a4,4,0,0,0-1.67-3.16,8.31,8.31,0,0,0-4.51-1c-.73,0-2.89.06-3.7.06-.49,0-2-.06-3.24-.06-.35,0-.54.06-.54.22s.16.24.41.24a3.92,3.92,0,0,1,.94.09c.76.21,1,.45,1,1.23s0,1.38,0,4.86Zm3-9.09a.29.29,0,0,1,.23-.33,9,9,0,0,1,1.4-.08c1.4,0,3.61.84,3.61,4.08a3.87,3.87,0,0,1-1.54,3.4,2.39,2.39,0,0,1-1.67.38,6.17,6.17,0,0,1-1.8-.22c-.17-.08-.23-.16-.23-.4Z"/><path class="cls-38" d="M143.93,55.51c0,2.11,0,3.92-.11,4.89-.08.68-.21,1.11-.7,1.22a3.79,3.79,0,0,1-.84.08c-.29,0-.38.13-.38.24s.17.25.47.25c.48,0,1.07,0,1.64-.06s1.08,0,1.35,0l2,0c.81.06,1.61.09,1.88.09,4.37,0,6.33-2.54,6.33-5,0-2.7-2.44-4.34-4.38-5a5,5,0,0,0,2.67-4c0-1.22-.75-3.43-5-3.43-.81,0-2.37.06-3.56.06-.46,0-2-.06-3.21-.06-.35,0-.55.06-.55.22s.17.24.41.24a4,4,0,0,1,.95.09c.75.21,1,.45,1,1.23s0,1.38,0,4.86Zm3.08-9.2c0-.25.05-.35.21-.38a6.64,6.64,0,0,1,1,0c2.05,0,3,1.91,3,3.45a3,3,0,0,1-1.08,2.43,3.12,3.12,0,0,1-1.86.41,4.63,4.63,0,0,1-1.11-.09c-.08,0-.16,0-.16-.24Zm0,7.07c0-.13.05-.16.13-.16h1a3.31,3.31,0,0,1,2.05.6,5,5,0,0,1,2.24,4.08c0,2.53-1.64,3.23-2.91,3.23a4.37,4.37,0,0,1-1.7-.27c-.76-.3-.84-.76-.84-2.27Z"/><path class="cls-38" d="M168.46,56.4a.22.22,0,0,1,.24.16l1.84,4.63a.36.36,0,0,1-.22.51c-.24,0-.3.1-.3.24s.27.16.71.19c2,.06,3.72.06,4.55.06s1-.06,1-.25-.11-.24-.33-.24a6.22,6.22,0,0,1-.89-.08c-.43-.11-1.11-.41-2-2.48C171.56,55.68,167.59,46.28,167,45c-.24-.51-.36-.72-.71-.72s-.43.26-.7.91l-6.21,14.45c-.48,1.16-.89,1.86-2,2l-.7,0c-.18,0-.27.1-.27.24s.14.25.43.25c1.25,0,2.51-.09,2.76-.09.75,0,1.86.09,2.65.09.23,0,.37-.06.37-.25s-.05-.24-.35-.24H162c-.73,0-.95-.25-.95-.65a4.17,4.17,0,0,1,.35-1.4l1.28-3.09c.05-.13.08-.16.21-.16Zm-5.1-1.26c-.08,0-.14-.06-.08-.17l2.29-5.8c0-.08.05-.21.13-.21s.09.13.11.21L168.05,55c0,.08,0,.14-.11.14Z"/><path class="cls-38" d="M180.75,49.68h.08c.47.41,3,3.19,5.57,5.67s5.44,5.24,6.92,6.62a1.51,1.51,0,0,0,1,.48c.19,0,.37-.21.37-.73L195,47.25c0-1.29.21-1.7.86-1.88a2.17,2.17,0,0,1,.73-.09c.27,0,.41-.11.41-.24s-.22-.22-.55-.22c-1.16,0-2,.06-2.32.06-.52,0-1.79-.06-3-.06-.35,0-.6,0-.6.22s.09.24.38.24a3.85,3.85,0,0,1,1.24.14c.57.21.79.62.81,2l.25,10.2H193c-.35-.32-3.51-3.56-5.13-5.15-3.45-3.38-7-7-7.3-7.32s-.73-.75-1-.75-.41.32-.41.78L179,58.81c0,2-.11,2.62-.73,2.78a5,5,0,0,1-1.08.11c-.22,0-.38.1-.38.24s.22.25.54.25c1.21,0,2.35-.09,2.57-.09.43,0,1.53.09,3.07.09.33,0,.54-.06.54-.25s-.13-.24-.4-.24a3.86,3.86,0,0,1-1.24-.17c-.46-.16-.76-.7-.81-2.48Z"/><g class="cls-39"><g class="cls-40"><g class="cls-41"><g class="cls-42"><rect class="cls-43" x="100.22" y="62.42" width="19.27" height="17.66"/></g></g><g class="cls-44"><g class="cls-45"><rect class="cls-46" x="122.37" y="62.01" width="18.98" height="17.99"/></g></g><g class="cls-47"><g class="cls-48"><rect class="cls-49" x="141.53" y="61.95" width="14.07" height="18.04"/></g></g><g class="cls-50"><g class="cls-51"><rect class="cls-52" x="156.47" y="62.01" width="19.85" height="18.55"/></g></g><g class="cls-53"><g class="cls-54"><rect class="cls-55" x="176.76" y="61.73" width="20.19" height="18.69"/></g></g><g class="cls-56"><g class="cls-57"><rect class="cls-58" x="75.48" y="62.34" width="22" height="21.16"/></g></g></g></g><path class="cls-59" d="M42.77,86.1l-.14-8.18,1.07,0,.15,8.18Z"/><path class="cls-59" d="M49.61,86.06,48.09,83a5.83,5.83,0,0,1-.34-.71h0c-.1.15-.38.62-.71,1.09l0,2.73-1.07,0L45.82,78l1.08,0,.05,2.7v1h0l2.36-3.74,1.26,0-2.22,3.38L50.78,86Z"/><path class="cls-59" d="M56,86.07l-.06-3.28-2.69,0,0,3.29-1.07,0L52.07,78l1.08,0,.07,3.87,2.7,0-.07-3.87,1.08,0,.14,8.18Z"/><path class="cls-59" d="M59.2,86.12l-.15-8.18,1.08,0,.12,7.15,2.81,0,0,1Z"/><path class="cls-59" d="M68.05,86.05l-.45-1.66-2.31,0-.38,1.68-1.14,0,2-8.22,1.15,0L69.18,86Zm-1.49-5.7c-.09-.31-.18-.8-.18-.8h0s-.08.49-.16.81l-.71,3.1,1.88,0Z"/><path class="cls-59" d="M70.85,84.07a1.72,1.72,0,0,0,1.64,1.1,1.22,1.22,0,0,0,1.36-1.25c0-1.75-3.67-1.37-3.72-3.94a2.11,2.11,0,0,1,2.2-2.19,2.38,2.38,0,0,1,2.39,1.6l-1,.58a1.46,1.46,0,0,0-1.43-1.14,1,1,0,0,0-1.11,1.09c0,1.8,3.66,1.3,3.7,4a2.24,2.24,0,0,1-2.41,2.32,2.74,2.74,0,0,1-2.59-1.51Z"/><path class="cls-59" d="M84.87,86.06l-.1-5.55c0-.34,0-.73,0-.73h0a6.11,6.11,0,0,1-.29.63l-1.6,3h-.09l-1.67-2.93-.33-.64h0s0,.41,0,.74l.1,5.55-1,0L79.69,78l1.17,0,1.56,2.84c.15.26.34.65.34.65h0l.32-.67,1.47-2.88,1.18,0L85.9,86Z"/><path class="cls-59" d="M88,86.13,87.89,78,92,77.88l0,1L89,79l0,2.82,2.61-.05,0,1-2.61,0,0,2.26,3.06,0,0,1Z"/><path class="cls-59" d="M98.12,86.07l-3.08-6h0a7.9,7.9,0,0,1,0,.8l.09,5.21-1,0L94,78l1,0,2.75,5.22c.14.26.31.7.31.7h0s0-.51,0-.79L98,77.89l1,0,.14,8.18Z"/><path class="cls-59" d="M101.25,86.13,101.11,78l1.88,0c2.21,0,3,1.79,3.07,4s-.72,4.1-2.88,4.14Zm1.91-1.06c1.3,0,1.84-1.29,1.81-3.09s-.61-3-2-3h-.8l.1,6.13Z"/><path class="cls-59" d="M107.87,86.13,107.73,78l4.13-.07,0,1-3.06.06.05,2.81,2.61,0v1l-2.6,0,0,2.27L112,85v1Z"/><path class="cls-59" d="M117.65,86.07,116.12,83c-.14-.28-.29-.59-.34-.72h0c-.11.16-.38.63-.71,1.1l0,2.72-1.08,0L113.86,78l1.08,0,0,2.69c0,.28,0,.88,0,1h0l2.36-3.75,1.26,0-2.22,3.38,2.41,4.8Z"/><path class="cls-59" d="M123.81,86.07l-.45-1.66-2.31,0-.38,1.67-1.14,0,2-8.22h1.15L125,86Zm-1.49-5.7c-.09-.32-.18-.8-.18-.8h0s-.08.49-.16.8l-.71,3.1,1.88,0Z"/><path class="cls-59" d="M127.4,86.11,127.28,79l-1.7,0V78l4.46-.08,0,1-1.68,0,.12,7.14Z"/><path class="cls-59" d="M135.31,86.08,133.78,83c-.14-.28-.29-.59-.34-.72h-.05c-.1.15-.37.63-.7,1.1l.05,2.72-1.08,0L131.52,78l1.07,0,0,2.7c0,.29,0,.88,0,1h0L135,77.9l1.27,0-2.22,3.38,2.41,4.8Z"/><path class="cls-59" d="M141.47,86.07,141,84.41l-2.32,0-.38,1.68-1.13,0,2-8.22,1.16,0,2.27,8.14ZM140,80.38c-.09-.32-.18-.81-.18-.81h0s-.09.49-.17.81l-.7,3.1,1.88,0Z"/><path class="cls-59" d="M148,86.07l-3.08-6h0s0,.42.05.81l.09,5.21h-1L143.86,78l1,0,2.74,5.21a7.15,7.15,0,0,1,.32.71h0s0-.52,0-.8l-.09-5.17,1,0,.14,8.18Z"/><path class="cls-59" d="M154.33,86.14,154.19,78l2,0c1.66,0,2.51.67,2.53,2.11a1.73,1.73,0,0,1-1,1.71v0a1.85,1.85,0,0,1,1.41,1.87c0,1.39-.75,2.43-2.59,2.46Zm1.81-4.76c1.1,0,1.52-.54,1.51-1.3s-.46-1.14-1.56-1.12h-.81l0,2.42Zm.45,3.7c1.1,0,1.52-.6,1.51-1.42s-.46-1.35-1.56-1.33l-1.2,0,0,2.75Z"/><path class="cls-59" d="M164.5,86.07l-.45-1.66-2.32,0-.38,1.67-1.13,0,2-8.22,1.16,0,2.27,8.14ZM163,80.37c-.09-.31-.18-.8-.18-.8h0s-.09.49-.16.81l-.71,3.1,1.88,0Z"/><path class="cls-59" d="M170.81,86.08l-.06-3.29-2.69,0,.05,3.28-1.07,0L166.9,78H168l.07,3.86,2.7,0-.07-3.87,1.08,0,.14,8.18Z"/><path class="cls-59" d="M177.57,86.07l-.45-1.66-2.32,0-.38,1.67-1.13,0,2-8.22,1.16,0,2.27,8.14Zm-1.49-5.69c-.09-.32-.18-.81-.18-.81h0s-.08.5-.16.81l-.7,3.1,1.88,0Z"/><path class="cls-59" d="M182.63,82.9l0-1,2.37,0c.05,2.47-.55,4.37-2.54,4.4s-2.78-1.9-2.82-4.15.61-4.22,2.67-4.26a2.46,2.46,0,0,1,2.46,1.86l-.95.55c-.25-.85-.73-1.38-1.49-1.37-1.21,0-1.64,1.42-1.61,3.2s.51,3.16,1.72,3.14,1.44-1.09,1.44-2.31Z"/><path class="cls-59" d="M186.76,86.11l-.14-8.17,1.08,0,.14,8.18Z"/><path class="cls-59" d="M193.51,86.08l-.44-1.66-2.32,0-.38,1.67-1.13,0,2-8.21,1.16,0,2.27,8.14ZM192,80.38c-.09-.32-.18-.8-.18-.8h0s-.09.49-.17.81l-.7,3.09,1.88,0Z"/></g></g></svg>