<svg xmlns="http://www.w3.org/2000/svg" viewBox="0 0 160.73 57.46"><defs><style>.cls-1{fill:#818285;}.cls-2{fill:#ec2227;}.cls-3{fill:#ec2529;}.cls-4{fill:#fff;}.cls-5{fill:#010101;}</style></defs><title>Asset 5</title><g id="Layer_2" data-name="Layer 2"><g id="Layer_1-2" data-name="Layer 1"><path class="cls-1" d="M160.73,57.46H0V42.1H160.73ZM.4,57.05H160.32V42.51H.4Z"/><rect class="cls-2" x="0.2" y="0.2" width="160.32" height="45.25"/><path class="cls-3" d="M160.73,45.65H0V0H160.73ZM.4,45.25H160.32V.41H.4Z"/><polygon class="cls-4" points="21.1 19.6 30.09 8.76 36.15 8.76 36.15 38 29.18 38 29.18 19.75 21.63 28.91 20.58 28.91 13.03 19.75 13.03 38 6.06 38 6.06 8.76 12.11 8.76 21.1 19.6"/><path class="cls-4" d="M42.33,8.76H54.82a9.09,9.09,0,0,1,6.6,2.46,8,8,0,0,1,2.55,6c0,3.22-1.61,5.6-4.81,7.15,1.41.67,2.74,2.46,4,5.39s2.48,5.7,3.66,8.28H59.19c-.46-1-1.25-2.79-2.39-5.5s-2.1-4.44-2.92-5.21a3.69,3.69,0,0,0-2.58-1.15h-2V38h-7Zm7,5.36v6.65H53a4.27,4.27,0,0,0,2.79-.86,3.06,3.06,0,0,0,1-2.48c0-2.22-1.32-3.31-4-3.31Z"/><rect class="cls-4" x="70.31" y="8.76" width="6.96" height="29.24"/><polygon class="cls-5" points="89.98 12.84 92.11 10.3 93.55 10.3 93.55 17.12 91.9 17.12 91.9 12.87 90.1 15.01 89.85 15.01 88.06 12.87 88.06 17.12 86.41 17.12 86.41 10.3 87.84 10.3 89.98 12.84"/><path class="cls-5" d="M98.91,10.3l3,6.82h-1.78l-.55-1.35h-3l-.5,1.35H94.31L97,10.3Zm.15,4.29L98,11.94l-1,2.65Z"/><path class="cls-5" d="M107.14,10.75v1.33a5.4,5.4,0,0,0-2.1-.61,1.46,1.46,0,0,0-.72.15.46.46,0,0,0-.27.4.52.52,0,0,0,.2.38,3,3,0,0,0,.93.45c.49.19.88.37,1.18.52a2.39,2.39,0,0,1,.75.67,1.8,1.8,0,0,1,.33,1.1,1.85,1.85,0,0,1-.7,1.51,2.85,2.85,0,0,1-1.85.55,4.79,4.79,0,0,1-2.4-.65V15.08a7.24,7.24,0,0,0,1.17.67,3,3,0,0,0,1.1.21c.65,0,1-.21,1-.63a.57.57,0,0,0-.19-.4,2.93,2.93,0,0,0-.94-.46,9.75,9.75,0,0,1-1.18-.51,2.27,2.27,0,0,1-.75-.67,1.85,1.85,0,0,1-.32-1.11,1.68,1.68,0,0,1,.7-1.42,2.88,2.88,0,0,1,1.84-.55,5.59,5.59,0,0,1,2.25.54"/><polygon class="cls-5" points="110.39 17.12 110.39 13.94 107.77 10.3 109.78 10.3 111.22 12.45 112.66 10.3 114.67 10.3 112.04 13.94 112.04 17.12 110.39 17.12"/><path class="cls-5" d="M118.23,10.3l3,6.82H119.4l-.56-1.35h-3l-.5,1.35h-1.75l2.69-6.82Zm.14,4.29-1.08-2.65-1,2.65Z"/><path class="cls-5" d="M121.94,10.3h3a2.2,2.2,0,0,1,1.57.58,1.85,1.85,0,0,1,.61,1.39,1.78,1.78,0,0,1-1.15,1.67,2.36,2.36,0,0,1,1,1.26c.3.68.59,1.32.86,1.92H126c-.11-.22-.29-.64-.57-1.28a3.89,3.89,0,0,0-.69-1.21.85.85,0,0,0-.62-.27h-.47v2.76h-1.66Zm1.66,1.26v1.55h.88a1.06,1.06,0,0,0,.66-.2.74.74,0,0,0,.24-.58c0-.52-.31-.77-.94-.77Z"/><path class="cls-5" d="M132.43,10.3l2.94,6.82h-1.78l-.54-1.35h-3l-.5,1.35h-1.75l2.68-6.82Zm.14,4.29-1.08-2.65-1,2.65Z"/><polygon class="cls-5" points="141.72 10.3 139.56 13.51 142.49 17.12 140.42 17.12 137.79 13.92 137.79 17.12 136.13 17.12 136.13 10.3 137.79 10.3 137.79 13.38 139.9 10.3 141.72 10.3"/><path class="cls-5" d="M147,10.3l3,6.82H148.2l-.54-1.35h-3l-.49,1.35h-1.75l2.68-6.82Zm.15,4.29-1.08-2.65-1,2.65Z"/><polygon class="cls-5" points="155.58 10.3 155.58 11.56 153.17 11.56 153.17 17.12 151.52 17.12 151.52 11.56 149.11 11.56 149.11 10.3 155.58 10.3"/><path class="cls-5" d="M86.41,20.55h3a2.15,2.15,0,0,1,1.56.58,1.79,1.79,0,0,1,.61,1.38,1.76,1.76,0,0,1-1.15,1.67,2.35,2.35,0,0,1,.95,1.25c.31.69.59,1.33.88,1.93H90.41c-.11-.22-.29-.65-.56-1.28a4,4,0,0,0-.7-1.21.89.89,0,0,0-.62-.27h-.47v2.76H86.41Zm1.65,1.25v1.55h.88a1,1,0,0,0,.66-.2.74.74,0,0,0,.25-.59c0-.5-.32-.76-.95-.76Z"/><polygon class="cls-5" points="97.92 26.11 97.92 27.36 93.02 27.36 93.02 20.55 97.85 20.55 97.85 21.79 94.67 21.79 94.67 23.22 97.71 23.22 97.71 24.48 94.67 24.48 94.67 26.11 97.92 26.11"/><polygon class="cls-5" points="104.25 26.11 104.25 27.36 99.18 27.36 99.18 20.55 100.84 20.55 100.84 26.11 104.25 26.11"/><path class="cls-5" d="M109.06,20.55l3,6.81h-1.79L109.68,26h-3l-.5,1.34h-1.75l2.68-6.81Zm.14,4.28-1.08-2.65-1,2.65Z"/><polygon class="cls-5" points="116.94 23.01 114.89 27.45 114.16 27.45 111.24 20.55 113 20.55 114.57 24.32 116.28 20.55 117.61 20.55 119.31 24.32 120.86 20.55 122.62 20.55 119.72 27.45 119 27.45 116.94 23.01"/><path class="cls-5" d="M126.47,20.55l3,6.81h-1.78L127.1,26h-3l-.49,1.34h-1.75l2.68-6.81Zm.15,4.28-1.08-2.65-1,2.65Z"/><polygon class="cls-5" points="136.92 20.55 136.92 27.36 135.52 27.36 131.85 23 131.85 27.36 130.2 27.36 130.2 20.55 131.72 20.55 135.27 24.71 135.27 20.55 136.92 20.55"/><rect class="cls-5" x="86.46" y="30.79" width="1.66" height="6.82"/><polygon class="cls-5" points="96.38 30.79 96.38 37.61 94.98 37.61 91.31 33.24 91.31 37.61 89.66 37.61 89.66 30.79 91.18 30.79 94.72 34.96 94.72 30.79 96.38 30.79"/><path class="cls-5" d="M97.86,30.79h2.93a3.74,3.74,0,0,1,2.69.95,3.27,3.27,0,0,1,1,2.46,3.14,3.14,0,0,1-1,2.5,4.11,4.11,0,0,1-2.85.91H97.86ZM99.52,32v4.32h1.08a2,2,0,0,0,1.6-.6,2.17,2.17,0,0,0,.56-1.56,2.14,2.14,0,0,0-.56-1.58,2.17,2.17,0,0,0-1.63-.58Z"/><path class="cls-5" d="M109.2,30.7A3.73,3.73,0,0,1,112,31.75a3.37,3.37,0,0,1,1,2.45,3.29,3.29,0,0,1-1.06,2.46,4.13,4.13,0,0,1-5.48,0,3.31,3.31,0,0,1-1.06-2.46,3.38,3.38,0,0,1,1-2.45,3.78,3.78,0,0,1,2.76-1.05m0,5.58a2,2,0,0,0,2.11-2.08,2,2,0,0,0-.59-1.51,2.3,2.3,0,0,0-3,0,2.23,2.23,0,0,0,0,3,2.05,2.05,0,0,0,1.51.57"/><polygon class="cls-5" points="120.94 30.79 120.94 37.61 119.54 37.61 115.87 33.24 115.87 37.61 114.21 37.61 114.21 30.79 115.74 30.79 119.28 34.96 119.28 30.79 120.94 30.79"/><polygon class="cls-5" points="127.35 36.36 127.35 37.61 122.45 37.61 122.45 30.8 127.28 30.8 127.28 32.04 124.11 32.04 124.11 33.47 127.14 33.47 127.14 34.71 124.11 34.71 124.11 36.36 127.35 36.36"/><path class="cls-5" d="M133.12,31.23v1.33A5.39,5.39,0,0,0,131,32a1.36,1.36,0,0,0-.71.16.45.45,0,0,0-.26.39.49.49,0,0,0,.19.38,3.37,3.37,0,0,0,.92.46,8.38,8.38,0,0,1,1.18.51,2.37,2.37,0,0,1,.77.68,1.82,1.82,0,0,1,.32,1.1,1.85,1.85,0,0,1-.7,1.5,2.84,2.84,0,0,1-1.84.56,4.84,4.84,0,0,1-2.4-.65V35.56a5.65,5.65,0,0,0,1.17.67,2.86,2.86,0,0,0,1.09.21c.65,0,1-.21,1-.62a.59.59,0,0,0-.2-.41,3.1,3.1,0,0,0-.94-.47,9.08,9.08,0,0,1-1.18-.5,2.08,2.08,0,0,1-.75-.67,1.84,1.84,0,0,1-.32-1.12,1.75,1.75,0,0,1,.69-1.41,2.94,2.94,0,0,1,1.86-.54,5.57,5.57,0,0,1,2.24.53"/><rect class="cls-5" x="134.56" y="30.79" width="1.65" height="6.82"/><path class="cls-5" d="M141.63,30.79l3,6.82h-1.79l-.54-1.34h-3l-.51,1.34H137l2.69-6.82Zm.13,4.28-1.07-2.65-1,2.65Z"/><rect class="cls-5" x="5.81" y="48.06" width="1.46" height="6.33"/><polygon class="cls-5" points="14.54 48.06 14.54 54.39 13.3 54.39 10.08 50.34 10.08 54.39 8.62 54.39 8.62 48.06 9.96 48.06 13.08 51.93 13.08 48.06 14.54 48.06"/><path class="cls-5" d="M15.84,48.06h2.58a3,3,0,0,1,3.24,3.18,3,3,0,0,1-.89,2.31,3.44,3.44,0,0,1-2.51.85H15.84Zm1.46,1.17v4h.95a1.76,1.76,0,0,0,1.41-.55,2.38,2.38,0,0,0,0-2.92,1.83,1.83,0,0,0-1.42-.53Z"/><path class="cls-5" d="M25.83,48a3.25,3.25,0,1,1,0,6.5,3.22,3.22,0,0,1-2.42-1,3.16,3.16,0,0,1-.94-2.29A3.25,3.25,0,0,1,25.83,48m0,5.18a1.77,1.77,0,0,0,1.33-.53,2.18,2.18,0,0,0,0-2.8,1.77,1.77,0,0,0-1.33-.53,1.75,1.75,0,0,0-1.34.53,2.14,2.14,0,0,0,0,2.8,1.75,1.75,0,0,0,1.34.53"/><polygon class="cls-5" points="36.15 48.06 36.15 54.39 34.92 54.39 31.69 50.34 31.69 54.39 30.23 54.39 30.23 48.06 31.56 48.06 34.69 51.93 34.69 48.06 36.15 48.06"/><polygon class="cls-5" points="41.79 53.23 41.79 54.39 37.48 54.39 37.48 48.06 41.73 48.06 41.73 49.22 38.93 49.22 38.93 50.55 41.6 50.55 41.6 51.71 38.93 51.71 38.93 53.23 41.79 53.23"/><path class="cls-5" d="M46.86,48.47v1.24A4.53,4.53,0,0,0,45,49.14a1.24,1.24,0,0,0-.62.14.45.45,0,0,0-.24.38.47.47,0,0,0,.18.35,3.4,3.4,0,0,0,.81.42,8.7,8.7,0,0,1,1,.48,2.28,2.28,0,0,1,.69.63,1.82,1.82,0,0,1,.27,1,1.7,1.7,0,0,1-.62,1.4,2.38,2.38,0,0,1-1.62.53,4,4,0,0,1-2.11-.61V52.5a6.39,6.39,0,0,0,1,.63,2.56,2.56,0,0,0,1,.18c.57,0,.85-.18.85-.58a.5.5,0,0,0-.16-.37,2.77,2.77,0,0,0-.83-.44,7.14,7.14,0,0,1-1-.47,2,2,0,0,1-.67-.62,1.9,1.9,0,0,1-.28-1,1.63,1.63,0,0,1,.62-1.32,2.42,2.42,0,0,1,1.62-.5,4.54,4.54,0,0,1,2,.49"/><rect class="cls-5" x="48.13" y="48.06" width="1.46" height="6.33"/><path class="cls-5" d="M54.36,48.06,57,54.39H55.39l-.49-1.25H52.29l-.44,1.25H50.31l2.36-6.33Zm.12,4-.95-2.46L52.67,52Z"/><polygon class="cls-5" points="64.23 48.06 61.53 54.47 60.91 54.47 58.07 48.06 59.65 48.06 61.2 51.68 62.67 48.06 64.23 48.06"/><path class="cls-5" d="M67.42,48a3.25,3.25,0,1,1,0,6.5,3.23,3.23,0,0,1-2.41-1A3.26,3.26,0,0,1,67.42,48m0,5.18a1.8,1.8,0,0,0,1.35-.53,2.18,2.18,0,0,0,0-2.8,1.8,1.8,0,0,0-1.35-.53,1.75,1.75,0,0,0-1.32.53,2.14,2.14,0,0,0,0,2.8,1.75,1.75,0,0,0,1.32.53"/><polygon class="cls-5" points="76.28 53.23 76.28 54.39 71.83 54.39 71.83 48.06 73.28 48.06 73.28 53.23 76.28 53.23"/><path class="cls-5" d="M81.44,48.06H82.9v3.6a2.74,2.74,0,0,1-.76,2.1,3,3,0,0,1-2.16.71,3.07,3.07,0,0,1-2.17-.72,2.73,2.73,0,0,1-.76-2.08V48.06h1.46V51.7a1.41,1.41,0,0,0,.4,1.06,1.43,1.43,0,0,0,1,.4,1.46,1.46,0,0,0,1.08-.4,1.58,1.58,0,0,0,.41-1.17Z"/><polygon class="cls-5" points="90.07 48.06 90.07 54.39 88.85 54.39 85.62 50.34 85.62 54.39 84.17 54.39 84.17 48.06 85.5 48.06 88.62 51.93 88.62 48.06 90.07 48.06"/><polygon class="cls-5" points="96.67 48.06 96.67 49.23 94.55 49.23 94.55 54.39 93.1 54.39 93.1 49.23 90.98 49.23 90.98 48.06 96.67 48.06"/><polygon class="cls-5" points="101.89 53.23 101.89 54.39 97.58 54.39 97.58 48.06 101.83 48.06 101.83 49.22 99.04 49.22 99.04 50.55 101.7 50.55 101.7 51.71 99.04 51.71 99.04 53.23 101.89 53.23"/><polygon class="cls-5" points="107.33 53.23 107.33 54.39 103.02 54.39 103.02 48.06 107.27 48.06 107.27 49.22 104.47 49.22 104.47 50.55 107.14 50.55 107.14 51.71 104.47 51.71 104.47 53.23 107.33 53.23"/><path class="cls-5" d="M108.44,48.06h2.61a1.88,1.88,0,0,1,1.39.54,1.71,1.71,0,0,1,.53,1.28,1.65,1.65,0,0,1-1,1.55,2.21,2.21,0,0,1,.84,1.16c.26.64.52,1.24.77,1.81H112l-.5-1.19a3.7,3.7,0,0,0-.6-1.14.8.8,0,0,0-.55-.25h-.42V54.4h-1.45Zm1.45,1.17v1.43h.78a.85.85,0,0,0,.59-.19.66.66,0,0,0,.21-.53c0-.48-.28-.71-.84-.71Z"/><path class="cls-5" d="M120.59,48.47v1.24a4.57,4.57,0,0,0-1.86-.57,1.24,1.24,0,0,0-.62.14.44.44,0,0,0-.23.38A.47.47,0,0,0,118,50a3.55,3.55,0,0,0,.82.42,9,9,0,0,1,1,.48,1.92,1.92,0,0,1,.67.63,1.68,1.68,0,0,1,.28,1,1.72,1.72,0,0,1-.61,1.4,2.44,2.44,0,0,1-1.63.53,4,4,0,0,1-2.11-.61V52.5a6,6,0,0,0,1,.63,2.52,2.52,0,0,0,1,.18c.57,0,.86-.18.86-.58a.51.51,0,0,0-.17-.37,2.77,2.77,0,0,0-.83-.44,7,7,0,0,1-1-.47,2,2,0,0,1-.67-.62,1.9,1.9,0,0,1-.28-1,1.67,1.67,0,0,1,.6-1.32,2.46,2.46,0,0,1,1.63-.5,4.58,4.58,0,0,1,2,.49"/><path class="cls-5" d="M124.91,48a3.25,3.25,0,1,1,0,6.5,3.23,3.23,0,0,1-3.36-3.25A3.25,3.25,0,0,1,124.91,48m0,5.18a1.82,1.82,0,0,0,1.34-.53,2.21,2.21,0,0,0,0-2.8,1.82,1.82,0,0,0-1.34-.53,1.8,1.8,0,0,0-1.35.53,2.18,2.18,0,0,0,0,2.8,1.8,1.8,0,0,0,1.35.53"/><path class="cls-5" d="M134.75,52.46v1.39a4.62,4.62,0,0,1-2.3.62,3.3,3.3,0,0,1-2.47-.92,3.26,3.26,0,0,1,.05-4.61,3.48,3.48,0,0,1,2.54-1,3.81,3.81,0,0,1,2.11.56V50a3.82,3.82,0,0,0-2-.65,2.17,2.17,0,0,0-1.53.54,1.77,1.77,0,0,0-.59,1.38,1.83,1.83,0,0,0,.58,1.39,2.07,2.07,0,0,0,1.5.55,2.49,2.49,0,0,0,.86-.13,7.24,7.24,0,0,0,1.25-.57"/><rect class="cls-5" x="135.96" y="48.06" width="1.47" height="6.33"/><polygon class="cls-5" points="143.09 53.23 143.09 54.39 138.78 54.39 138.78 48.06 143.03 48.06 143.03 49.22 140.24 49.22 140.24 50.55 142.9 50.55 142.9 51.71 140.24 51.71 140.24 53.23 143.09 53.23"/><polygon class="cls-5" points="149.48 48.06 149.48 49.23 147.36 49.23 147.36 54.39 145.91 54.39 145.91 49.23 143.79 49.23 143.79 48.06 149.48 48.06"/><polygon class="cls-5" points="152.03 54.39 152.03 51.44 149.72 48.06 151.48 48.06 152.75 50.05 154.02 48.06 155.79 48.06 153.48 51.44 153.48 54.39 152.03 54.39"/></g></g></svg>