<svg xmlns="http://www.w3.org/2000/svg" viewBox="0 0 173.3 64.5"><defs><style>.cls-1{fill:#58595b;}.cls-2{fill:#f7941d;}.cls-3{fill:#f15a29;}.cls-4{fill:#fff;}</style></defs><title>Asset 4</title><g id="Layer_2" data-name="Layer 2"><g id="Layer_1-2" data-name="Layer 1"><path class="cls-1" d="M71.4,5.65H82.33q9.18,0,13.67,4.16T100.47,22q0,8-4.68,12.16T82,38.26H71.4ZM92.71,21.84a10.31,10.31,0,0,0-2.8-7.53,9.76,9.76,0,0,0-7.31-2.86H79v21h3.45a10,10,0,0,0,7.51-2.85A10.68,10.68,0,0,0,92.71,21.84Z"/><path class="cls-1" d="M132.68,5.65H144V38.26h-7.26l.09-25.87-8.58,25.35h-6.71l-8.41-25.4.09,25.92h-7.3V5.65h11.67l7.44,22.74Z"/><path class="cls-1" d="M158.08,38.26h-7.54V5.65h7.54Z"/><path class="cls-1" d="M172.23,38.26h-7.54V5.65h7.54Z"/><path class="cls-1" d="M73.14,51.84a6.2,6.2,0,0,1-1.83-.23V43.87a5.89,5.89,0,0,1,1.83-.23c1.82,0,2.73.91,2.73,4.1S75,51.84,73.14,51.84Zm0-7.46h-.8V51.1h.8c1,0,1.71-.69,1.71-3.36S74.16,44.38,73.14,44.38Z"/><path class="cls-1" d="M78.15,43.75v8h-1v-8Z"/><path class="cls-1" d="M81.51,43.64a6,6,0,0,1,1.71.23v.51H81.74c-1,0-1.49.45-1.49,1.54,0,1.77,3.19.85,3.19,3.53,0,1.71-.68,2.39-2.39,2.39a6,6,0,0,1-1.71-.23V51.1h1.48c1.14,0,1.6-.46,1.6-1.65,0-1.65-3.19-.74-3.19-3.53C79.23,44.32,79.92,43.64,81.51,43.64Z"/><path class="cls-1" d="M85.61,49.67l-.51,2.06h-1l1.94-8h1.48l1.93,8h-1l-.52-2.06Zm1.16-4.78h0l-.94,4h1.93Z"/><path class="cls-1" d="M92.33,43.64a5.88,5.88,0,0,1,1.7.23v.51H92.55c-1,0-1.48.45-1.48,1.54,0,1.77,3.19.85,3.19,3.53,0,1.71-.68,2.39-2.39,2.39a6,6,0,0,1-1.71-.23V51.1h1.49c1.13,0,1.59-.46,1.59-1.65,0-1.65-3.19-.74-3.19-3.53C90.05,44.32,90.73,43.64,92.33,43.64Z"/><path class="cls-1" d="M94.77,43.75h4.67v.8H97.62v7.18h-1V44.55H94.77Z"/><path class="cls-1" d="M101.27,50.93h2.85v.8h-3.88v-8h3.88v.8h-2.85v2.62h2.5V48h-2.5Z"/><path class="cls-1" d="M108.33,48.93l1.36,2.8h-1.13l-1.26-2.68a6.76,6.76,0,0,1-1.14-.12v2.8h-1V43.87a5.86,5.86,0,0,1,1.82-.23c1.82,0,2.51.68,2.51,2.73C109.47,47.91,109.07,48.65,108.33,48.93ZM107,48.31c1,0,1.48-.45,1.48-1.94s-.45-2-1.48-2h-.8v3.93Z"/><path class="cls-1" d="M117,50.3l-1.54-4.5h0l-.34,5.93h-1l.45-8h1.26l1.74,5.13h0l1.74-5.13h1.25l.46,8h-1l-.34-5.93h-.06l-1.54,4.5Z"/><path class="cls-1" d="M123.36,49.67l-.51,2.06h-1l1.94-8h1.48l1.94,8h-1l-.51-2.06Zm1.16-4.78h0l-1,4h1.94Z"/><path class="cls-1" d="M129.06,51.73h-1v-8h1.15l2.39,5.58h0V43.75h1v8H131.5l-2.39-5.58h-.05Z"/><path class="cls-1" d="M135.09,49.67l-.51,2.06h-1l1.94-8H137l1.94,8h-1l-.51-2.06Zm1.16-4.78h0l-1,4h1.94Z"/><path class="cls-1" d="M143.8,51.61a5.9,5.9,0,0,1-1.71.23c-1.82,0-2.73-.91-2.73-4.1s.91-4.1,2.51-4.1a5.88,5.88,0,0,1,1.7.23v.51h-1.48c-1,0-1.71.68-1.71,3.36s.69,3.36,1.94,3.36h.46V47.4h1Z"/><path class="cls-1" d="M146.14,50.93H149v.8h-3.87v-8H149v.8h-2.84v2.62h2.5V48h-2.5Z"/><path class="cls-1" d="M152.86,50.3l-1.54-4.5h-.06l-.34,5.93h-1l.45-8h1.26l1.74,5.13h0l1.75-5.13h1.25l.45,8h-1l-.34-5.93h-.06l-1.54,4.5Z"/><path class="cls-1" d="M159.12,50.93H162v.8h-3.88v-8H162v.8h-2.85v2.62h2.51V48h-2.51Z"/><path class="cls-1" d="M164,51.73h-1v-8h1.14l2.39,5.58h.06V43.75h1v8h-1.14L164,46.15H164Z"/><path class="cls-1" d="M168.34,43.75H173v.8h-1.82v7.18h-1V44.55h-1.83Z"/><path class="cls-1" d="M72.34,56.18v8h-1v-8Z"/><path class="cls-1" d="M74.68,64.15h-1v-8h1.14l2.39,5.58h.05V56.18h1v8H77.12l-2.39-5.58h0Z"/><path class="cls-1" d="M81.62,56.06a6.27,6.27,0,0,1,1.71.23v.51H81.85c-1,0-1.48.46-1.48,1.54,0,1.76,3.19.85,3.19,3.53,0,1.71-.68,2.4-2.39,2.4A6.27,6.27,0,0,1,79.46,64v-.52h1.48c1.14,0,1.59-.45,1.59-1.65,0-1.65-3.19-.74-3.19-3.53C79.34,56.74,80,56.06,81.62,56.06Z"/><path class="cls-1" d="M84.07,56.18h4.67V57H86.92v7.17h-1V57H84.07Z"/><path class="cls-1" d="M90.56,56.18v8h-1v-8Z"/><path class="cls-1" d="M91.36,56.18H96V57H94.21v7.17h-1V57H91.36Z"/><path class="cls-1" d="M100.3,61.42V56.18h1v5.24c0,2.16-.68,2.85-2.28,2.85s-2.27-.69-2.27-2.85V56.18h1v5.24c0,1.7.46,2.16,1.25,2.16S100.3,63.12,100.3,61.42Z"/><path class="cls-1" d="M102.06,56.18h4.68V57h-1.83v7.17h-1V57h-1.83Z"/><path class="cls-1" d="M108.56,63.35h2.84v.8h-3.87v-8h3.87V57h-2.84v2.61h2.5v.8h-2.5Z"/><path class="cls-1" d="M120.63,60.16c0,3.19-.91,4.11-2.45,4.11s-2.45-.92-2.45-4.11.91-4.1,2.45-4.1S120.63,57,120.63,60.16Zm-1,0c0-2.73-.68-3.42-1.42-3.42s-1.43.69-1.43,3.42.69,3.42,1.43,3.42S119.6,62.9,119.6,60.16Z"/><path class="cls-1" d="M122.91,64.15h-1v-8h3.87V57h-2.84v2.78h2.39v.8h-2.39Z"/><path class="cls-1" d="M131.16,56.18v8h-1v-8Z"/><path class="cls-1" d="M133.5,64.15h-1v-8h1.14l2.39,5.58h.06V56.18h1v8H136l-2.4-5.58h-.05Z"/><path class="cls-1" d="M140.27,64.27a6.17,6.17,0,0,1-1.82-.23V56.29a6.17,6.17,0,0,1,1.82-.23c1.82,0,2.73.92,2.73,4.1S142.09,64.27,140.27,64.27Zm0-7.47h-.8v6.72h.8c1,0,1.71-.68,1.71-3.36S141.3,56.8,140.27,56.8Z"/><path class="cls-1" d="M148.93,60.16c0,3.19-.91,4.11-2.45,4.11S144,63.35,144,60.16s.91-4.1,2.45-4.1S148.93,57,148.93,60.16Zm-1,0c0-2.73-.68-3.42-1.42-3.42s-1.43.69-1.43,3.42.69,3.42,1.43,3.42S147.9,62.9,147.9,60.16Z"/><path class="cls-1" d="M151.15,64.15h-1v-8h1.14l2.39,5.58h.06V56.18h1v8H153.6l-2.4-5.58h0Z"/><path class="cls-1" d="M157.12,63.35H160v.8H156.1v-8H160V57h-2.86v2.61h2.51v.8h-2.51Z"/><path class="cls-1" d="M163,56.06a6.33,6.33,0,0,1,1.71.23v.51h-1.48c-1,0-1.48.46-1.48,1.54,0,1.76,3.19.85,3.19,3.53,0,1.71-.69,2.4-2.39,2.4a6.27,6.27,0,0,1-1.71-.23v-.52h1.48c1.14,0,1.59-.45,1.59-1.65,0-1.65-3.19-.74-3.19-3.53C160.71,56.74,161.4,56.06,163,56.06Z"/><path class="cls-1" d="M167,56.18v8h-1v-8Z"/><path class="cls-1" d="M169.48,62.1,169,64.15h-1l1.93-8h1.48l1.94,8h-1l-.51-2.05Zm1.17-4.79h-.05l-.94,4h1.93Z"/><polygon class="cls-1" points="42.94 38.23 21.37 38.23 13.67 5.88 50.93 5.96 42.94 38.23"/><path class="cls-2" d="M45.91,13.27l5-7.31a32.25,32.25,0,0,0-37.26-.07l5,7.31a23.39,23.39,0,0,1,27.21.07Z"/><path class="cls-3" d="M32.25,54.45A22.2,22.2,0,0,0,48.32,16.94L32.5,32.75,45.23,14.24a22.2,22.2,0,0,0-25.86-.07L31.93,32.43,16.3,16.81a22.2,22.2,0,0,0,16,37.64Z"/><path class="cls-3" d="M55.42,9.83,49.15,16.1A23.38,23.38,0,1,1,15.47,16L9.2,9.7a32.25,32.25,0,1,0,46.22.13Z"/><path class="cls-4" d="M34.88,21.73a2.56,2.56,0,1,1-2.56-2.55A2.55,2.55,0,0,1,34.88,21.73Z"/></g></g></svg>