<svg xmlns="http://www.w3.org/2000/svg" viewBox="0 0 168.86 77.86"><defs><style>.cls-1{fill:#8dc63f;}.cls-2{fill:#f7941d;}.cls-3{fill:#fff;}.cls-4{fill:#231f20;}</style></defs><title>Asset 8</title><g id="Layer_2" data-name="Layer 2"><g id="Layer_1-2" data-name="Layer 1"><path class="cls-1" d="M.72,55.79s13.06-40.45,54.45-43.9c6.93-.57,15,4,16.36,7.79,0,0,3.31-20.61-17.25-19.65s-47,20.7-53,41.39A26.88,26.88,0,0,0,.6,55.33Z"/><path class="cls-2" d="M12.05,37.52S13.28,49.46,23,49.12c9.88-.33,20.9-8.67,23.82-11.56,4.95-5,12.2-13.94,8.7-25.48h0S48.83,33.46,28.64,40.46c0,0-8.72,3-13.22-.4C11.1,36.78,12.05,37.52,12.05,37.52Z"/><path d="M93.25,35.59H78.1l-3.71,6.08h-7L86.87,10h10l4,31.69H94Zm-.47-4.46-2-16.5-10,16.5Z"/><path d="M128.45,30.37h6.67l-.25,1.07c-1.1,4.41-2.68,7.27-4.81,8.57S123.85,42,117.74,42c-6.92,0-10.94-1-12-3.07s-.53-7.51,1.67-16.4c1.27-5.21,3.25-8.65,5.78-10.31s7.28-2.48,14.2-2.48c5,0,8.2.68,9.52,2s1.52,4,.53,8.08l-.15.72h-6.7l.2-.81c.52-2.08.4-3.41-.33-4s-2.62-.9-5.69-.9c-4.15,0-6.74.45-7.81,1.39s-2.13,3.61-3.25,8.14q-2.25,9.07-1.58,10.75c.51,1.11,2.77,1.69,6.88,1.69,3.32,0,5.52-.31,6.67-1s2-2,2.49-4.06Z"/><polygon points="157.04 15.37 150.53 41.67 143.88 41.67 150.37 15.37 140.23 15.37 141.56 9.98 168.86 9.98 167.54 15.37 157.04 15.37"/><polygon points="61.75 57.91 65.28 46.71 161.41 46.71 158.62 57.91 61.75 57.91"/><path class="cls-3" d="M70.5,53.59H68.37l-.56,1h-1l3-5h1.39l.38,5h-1Zm0-.69-.17-2.56L68.79,52.9Z"/><polygon class="cls-3" points="75.06 49.57 74.5 51.59 74.95 51.59 77.13 49.57 78.3 49.57 75.67 52 77.2 54.56 75.99 54.56 74.73 52.41 74.29 52.41 73.72 54.56 72.77 54.56 74.08 49.57 75.06 49.57"/><path class="cls-3" d="M83,51h-.93a.93.93,0,0,1,0-.1.64.64,0,0,0-.06-.53,1.77,1.77,0,0,0-.7-.09,2.17,2.17,0,0,0-.9.12.86.86,0,0,0-.36.52c-.08.31-.07.5,0,.58a4.81,4.81,0,0,0,1.06.15,2.54,2.54,0,0,1,1.36.29c.16.18.19.54,0,1.08a2.11,2.11,0,0,1-.71,1.26,3.56,3.56,0,0,1-1.78.29c-.78,0-1.27-.08-1.46-.29s-.25-.57-.09-1.13l0-.19h.89v.09c-.08.36-.08.57,0,.66a2.4,2.4,0,0,0,1,.12,1.75,1.75,0,0,0,.85-.14,1.08,1.08,0,0,0,.34-.64c.08-.22.08-.38,0-.46a1,1,0,0,0-.55-.15l-.5,0a2.55,2.55,0,0,1-1.43-.33c-.18-.17-.18-.52,0-1.1a1.73,1.73,0,0,1,.7-1.14,3.17,3.17,0,0,1,1.66-.31,2.61,2.61,0,0,1,1.45.27c.22.18.25.53.12,1Z"/><polygon class="cls-3" points="85.87 49.57 84.56 54.56 83.6 54.56 84.94 49.57 85.87 49.57"/><path class="cls-3" d="M92.4,52.78h.95l0,.17a2.18,2.18,0,0,1-.74,1.33,3.18,3.18,0,0,1-1.76.31c-1,0-1.54-.15-1.67-.48a5.24,5.24,0,0,1,.33-2.57,2.75,2.75,0,0,1,.89-1.61,3.83,3.83,0,0,1,2-.39,1.94,1.94,0,0,1,1.35.32c.19.22.19.65,0,1.27l0,.1h-1l0-.11c.1-.33.1-.56,0-.63s-.35-.14-.82-.14a1.71,1.71,0,0,0-1.07.21,2.86,2.86,0,0,0-.55,1.29,5,5,0,0,0-.28,1.68c.07.18.38.27,1,.27a2,2,0,0,0,.92-.16c.2-.07.33-.31.39-.63Z"/><polygon class="cls-3" points="96.2 50.39 95.86 51.67 98.18 51.67 98 52.37 95.7 52.37 95.3 53.75 97.8 53.75 97.56 54.56 94.15 54.56 95.46 49.57 98.86 49.57 98.66 50.39 96.2 50.39"/><path class="cls-3" d="M99,54.56l1.34-5h2.24c.67,0,1.11.14,1.26.37s.2.69,0,1.35a2.23,2.23,0,0,1-.69,1.33,2.52,2.52,0,0,1-1.45.32h-1.32L100,54.56Zm1.59-2.41h1.08a1.48,1.48,0,0,0,.83-.14,1,1,0,0,0,.37-.7c.12-.43.16-.68.09-.77s-.32-.15-.71-.15h-1.18Z"/><path class="cls-3" d="M107.67,53.59h-2.15l-.57,1h-1l3-5h1.41l.36,5h-1Zm-.06-.69-.16-2.56-1.52,2.56Z"/><polygon class="cls-3" points="113 50.42 111.89 54.56 110.97 54.56 112.05 50.42 110.63 50.42 110.83 49.57 114.7 49.57 114.48 50.42 113 50.42"/><polygon class="cls-3" points="120.37 50.42 119.28 54.56 118.32 54.56 119.41 50.42 118 50.42 118.21 49.57 122.07 49.57 121.84 50.42 120.37 50.42"/><path class="cls-3" d="M125.26,53.59h-2.13l-.56,1h-1l3-5H126l.35,5h-1Zm0-.69-.17-2.56-1.54,2.56Z"/><path class="cls-3" d="M133.45,49.57l-1.32,5h-1.58l-.7-2.72c0-.14-.09-.38-.15-.72l0-.37-.06-.36h-.05l-.07.33-.07.32-.17.68-.76,2.84h-.94l1.32-5h1.61l.59,2.52c.07.24.13.51.19.83l.1.4.08.41h0l.08-.33.07-.33.17-.62.75-2.88Z"/><path class="cls-3" d="M136.46,51.9h2.18l-.24,1a2.26,2.26,0,0,1-.77,1.38,3.7,3.7,0,0,1-1.91.31c-.85,0-1.39-.14-1.58-.41s-.21-.83,0-1.68a7.15,7.15,0,0,1,.73-2.08,1.66,1.66,0,0,1,.81-.69,4.56,4.56,0,0,1,1.47-.19,3,3,0,0,1,1.64.28c.21.19.22.6.05,1.26h-.94c.05-.33.05-.54-.07-.6s-.38-.13-.91-.13a2,2,0,0,0-1.09.21,1.66,1.66,0,0,0-.46,1l-.14.49-.16.64c-.14.49-.16.8-.05.94s.43.21,1,.21a1.92,1.92,0,0,0,1-.19,1.6,1.6,0,0,0,.44-.79l.05-.21h-1.24Z"/><path class="cls-3" d="M142,51.9h2.22l-.26,1a2.18,2.18,0,0,1-.79,1.38,3.6,3.6,0,0,1-1.87.31c-.89,0-1.4-.14-1.59-.41s-.2-.83,0-1.68a8.36,8.36,0,0,1,.72-2.08,1.83,1.83,0,0,1,.82-.69,4.65,4.65,0,0,1,1.47-.19,3,3,0,0,1,1.65.28c.2.19.23.6.06,1.26h-1c.08-.33,0-.54-.07-.6s-.4-.13-.91-.13a1.93,1.93,0,0,0-1.07.21,1.72,1.72,0,0,0-.47,1l-.14.49-.16.64a1.43,1.43,0,0,0,0,.94c.1.14.44.21,1,.21a2,2,0,0,0,1-.19,1.4,1.4,0,0,0,.42-.79l.05-.21h-1.23Z"/><path class="cls-3" d="M148.26,53.59H146.1l-.56,1h-1l3-5h1.4l.37,5h-1Zm0-.69-.16-2.56-1.54,2.56Z"/><path class="cls-3" d="M150.51,54.56l1.32-5h2.23c.69,0,1.12.14,1.29.37s.18.69,0,1.35a2.54,2.54,0,0,1-.66,1.33,2.7,2.7,0,0,1-1.46.32h-1.34l-.42,1.62Zm1.59-2.41h1.05A1.7,1.7,0,0,0,154,52a1.25,1.25,0,0,0,.37-.7c.1-.43.12-.68,0-.77s-.28-.15-.68-.15h-1.2Z"/><path class="cls-4" d="M6.13,76.35v1a4.61,4.61,0,0,1-2.24.54,3.4,3.4,0,0,1-1.74-.43A3,3,0,0,1,1,76.28a2.93,2.93,0,0,1-.44-1.55,3.06,3.06,0,0,1,1-2.28,3.28,3.28,0,0,1,2.35-.91,5.52,5.52,0,0,1,2.16.51v1A4.41,4.41,0,0,0,4,72.37a2.5,2.5,0,0,0-1.75.68,2.19,2.19,0,0,0-.69,1.68,2.22,2.22,0,0,0,.67,1.66,2.48,2.48,0,0,0,1.75.66A3.9,3.9,0,0,0,6.13,76.35Z"/><path class="cls-4" d="M14.23,71.59h.63l2.75,6.2H16.7L15.88,76H13.27l-.78,1.84H11.6Zm1.31,3.58-1-2.21-.93,2.21Z"/><path class="cls-4" d="M23.17,77.79V71.63h1.52a2.42,2.42,0,0,1,1.49.45,1.6,1.6,0,0,1,.54,1.25,1.44,1.44,0,0,1-.28.94,1.46,1.46,0,0,1-.75.59,5.21,5.21,0,0,1,.59.51c.16.24.44.63.78,1.18a5.37,5.37,0,0,0,.52.79l.3.45h-1l-.29-.42s0,0,0-.06l-.17-.24-.28-.46-.3-.48a6.28,6.28,0,0,0-.51-.62,2.3,2.3,0,0,0-.37-.3,1.38,1.38,0,0,0-.64-.09H24v2.67Zm1.14-5.42H24v1.95h.32a2.57,2.57,0,0,0,.91-.11,1,1,0,0,0,.54-.88.66.66,0,0,0-.17-.51.77.77,0,0,0-.42-.37A4.26,4.26,0,0,0,24.31,72.37Z"/><polygon class="cls-4" points="33.4 71.63 36.9 71.63 36.9 72.41 34.28 72.41 34.28 74.28 36.82 74.28 36.82 75.08 34.28 75.08 34.28 76.98 36.98 76.98 36.98 77.76 33.4 77.76 33.4 71.63"/><polygon class="cls-4" points="50.12 71.63 53.38 71.63 53.38 72.41 50.97 72.41 50.97 74.13 53.38 74.13 53.38 74.92 50.97 74.92 50.97 77.79 50.12 77.79 50.12 71.63"/><path class="cls-4" d="M62.19,71.54a3.27,3.27,0,0,1,2.36.89,3.1,3.1,0,0,1,.94,2.28A3,3,0,0,1,64.55,77a3.37,3.37,0,0,1-2.42.9,3.18,3.18,0,0,1-2.32-.9,3,3,0,0,1-.92-2.23,3.14,3.14,0,0,1,.92-2.3A3.25,3.25,0,0,1,62.19,71.54Zm0,.83a2.48,2.48,0,0,0-1.74.65,2.32,2.32,0,0,0-.69,1.71,2.26,2.26,0,0,0,.69,1.66,2.42,2.42,0,0,0,1.71.66,2.31,2.31,0,0,0,1.72-.7,2.21,2.21,0,0,0,.68-1.67,2.17,2.17,0,0,0-.68-1.63A2.36,2.36,0,0,0,62.22,72.37Z"/><path class="cls-4" d="M71.46,77.79V71.63H73a2.47,2.47,0,0,1,1.49.45A1.58,1.58,0,0,1,75,73.33a1.79,1.79,0,0,1-.28.94,1.55,1.55,0,0,1-.77.59,2.7,2.7,0,0,1,.56.51,11.31,11.31,0,0,1,.8,1.18,6.18,6.18,0,0,0,.53.79l.32.45H75.13l-.26-.42s0,0-.06-.06l-.15-.24-.27-.46-.33-.48a6.41,6.41,0,0,0-.49-.62,1.29,1.29,0,0,0-.41-.3,1.15,1.15,0,0,0-.6-.09h-.24v2.67Zm1.13-5.42h-.27v1.95h.33a2.67,2.67,0,0,0,.92-.11,1,1,0,0,0,.39-.35,1.12,1.12,0,0,0,.13-.53.93.93,0,0,0-.14-.51,1,1,0,0,0-.42-.37A4.85,4.85,0,0,0,72.59,72.37Z"/><polygon class="cls-4" points="93.38 71.63 94.25 71.63 94.25 77.79 93.38 77.79 93.38 75.12 89.92 75.12 89.92 77.79 89.04 77.79 89.04 71.63 89.92 71.63 89.92 74.28 93.38 74.28 93.38 71.63"/><path class="cls-4" d="M104.72,71.63h.88v3.49a3.91,3.91,0,0,1-.09,1,2.33,2.33,0,0,1-.25.62,2.54,2.54,0,0,1-.37.43,3,3,0,0,1-1.92.64,3,3,0,0,1-1.94-.64,1.83,1.83,0,0,1-.36-.43,2.51,2.51,0,0,1-.27-.59,6.32,6.32,0,0,1-.08-1.08V71.63h.88v3.49a2.73,2.73,0,0,0,.19,1.2,1.52,1.52,0,0,0,.62.55,1.93,1.93,0,0,0,.95.2,2,2,0,0,0,1.27-.39,1.9,1.9,0,0,0,.39-.53,3.2,3.2,0,0,0,.1-1Z"/><polygon class="cls-4" points="116.56 71.63 117.38 71.63 117.38 77.79 116.49 77.79 116.49 73 114.61 75.38 114.44 75.38 112.53 73 112.53 77.79 111.64 77.79 111.64 71.63 112.47 71.63 114.54 74.15 116.56 71.63"/><path class="cls-4" d="M125.49,71.59h.63l2.76,6.2H128l-.8-1.84h-2.63l-.78,1.84h-.9Zm1.32,3.58-1-2.21-.93,2.21Z"/><polygon class="cls-4" points="139.3 71.63 140.12 71.63 140.12 77.79 139.35 77.79 135.25 73.05 135.25 77.79 134.42 77.79 134.42 71.63 135.12 71.63 139.3 76.39 139.3 71.63"/><rect class="cls-4" x="146.29" y="71.63" width="0.87" height="6.16"/><polygon class="cls-4" points="152.83 71.62 157.97 71.62 157.97 72.41 155.85 72.41 155.85 77.79 154.93 77.79 154.93 72.41 152.83 72.41 152.83 71.62"/><polygon class="cls-4" points="167.33 71.63 168.38 71.63 166.13 74.53 166.13 77.79 165.21 77.79 165.21 74.53 162.95 71.63 164.01 71.63 165.67 73.76 167.33 71.63"/></g></g></svg>