<svg xmlns="http://www.w3.org/2000/svg" viewBox="0 0 166.07 81.93"><defs><style>.cls-1{fill:#cbcf2b;}.cls-2{fill:#1d76bb;}.cls-3{fill:#158241;}</style></defs><title>Asset 7</title><g id="Layer_2" data-name="Layer 2"><g id="Layer_1-2" data-name="Layer 1"><path class="cls-1" d="M0,43.78V13.27S1.65,1.14,12.3,1.14H45S56.36,3,56.36,13.12V48.33s-3.14,10-11.23,10H9.45S1.13,56.27,0,45.45a15.15,15.15,0,0,1,0-1.67"/><path class="cls-2" d="M8.05,23.84S18.19,3.3,40.57,9.18c0,0,9.4,1.78,14.61-.65,0,0-10.92,21.22-34.6,20.64,0,0,7.44-2.09,20-14.52,0,0-18.74-7-32.56,9.19"/><path class="cls-3" d="M48.4,35.38S38.26,55.92,15.88,50c0,0-9.41-1.78-14.61.66,0,0,10.92-21.22,34.6-20.65,0,0-7.43,2.1-20,14.52,0,0,18.73,7,32.55-9.18"/><path class="cls-2" d="M82.89,25.4a27.3,27.3,0,0,1-8.29,1.42c-4.54,0-7.81-1.16-10.1-3.4A12.35,12.35,0,0,1,61,14.25C61,5.87,67,1.08,75.19,1.08a16.8,16.8,0,0,1,6.89,1.24L80.9,6.88A13.56,13.56,0,0,0,75.12,5.8C70.43,5.8,66.9,8.49,66.9,14c0,5.21,3.2,8.27,7.81,8.27a7.29,7.29,0,0,0,2.76-.37V16.57H73.64V12.12h9.25Z"/><rect class="cls-2" x="87.2" width="5.61" height="26.56"/><path class="cls-2" d="M115.14,17.21c0,6.69-4.68,9.76-9.51,9.76-5.27,0-9.32-3.51-9.32-9.43s3.84-9.69,9.62-9.69c5.53,0,9.21,3.86,9.21,9.36m-13,.19c0,3.14,1.3,5.5,3.69,5.5,2.18,0,3.57-2.21,3.57-5.5,0-2.73-1-5.5-3.57-5.5-2.69,0-3.69,2.8-3.69,5.5"/><path class="cls-2" d="M118.46,26.56c.07-1.2.14-3.41.14-5.46V0h5.61V10.44h.07a6.32,6.32,0,0,1,5.46-2.59c4.31,0,7.48,3.64,7.44,9.25,0,6.58-4.13,9.87-8.26,9.87A5.94,5.94,0,0,1,123.51,24h-.07l-.23,2.54Zm5.75-7.78a3.91,3.91,0,0,0,.11,1,3.41,3.41,0,0,0,3.28,2.69c2.39,0,3.87-1.87,3.87-5.16,0-2.84-1.26-5.09-3.87-5.09A3.49,3.49,0,0,0,124.32,15a4.39,4.39,0,0,0-.11,1.05Z"/><path class="cls-2" d="M150.89,26.56l-.33-1.83h-.12A6.41,6.41,0,0,1,145.28,27a5.56,5.56,0,0,1-5.81-5.61c0-4.75,4.2-7,10.58-7V14.1c0-1-.51-2.35-3.29-2.35a10,10,0,0,0-5,1.38l-1-3.67a14.68,14.68,0,0,1,7-1.61c6,0,7.92,3.6,7.92,7.9v6.36a28,28,0,0,0,.26,4.45Zm-.66-8.64c-2.95,0-5.24.67-5.24,2.88A2,2,0,0,0,147.21,23a3.08,3.08,0,0,0,2.91-2.1,4.37,4.37,0,0,0,.11-1Z"/><rect class="cls-2" x="160.1" width="5.61" height="26.56"/><polygon class="cls-3" points="61 54.87 74.49 35.17 74.49 35.01 62.26 35.01 62.26 29.63 82.8 29.63 82.8 33.39 69.61 52.83 69.61 53 83.01 53 83.01 58.37 61 58.37 61 54.87"/><path class="cls-3" d="M98.68,58.37l-.38-2.1h-.13a7.35,7.35,0,0,1-5.88,2.57,6.34,6.34,0,0,1-6.64-6.39c0-5.42,4.79-8,12.06-8v-.3c0-1.11-.59-2.69-3.74-2.69a11.41,11.41,0,0,0-5.67,1.58l-1.18-4.18a16.81,16.81,0,0,1,8-1.82c6.85,0,9,4.08,9,9V53.3a34.15,34.15,0,0,0,.29,5.07Zm-.76-9.85c-3.36-.05-6,.77-6,3.28a2.3,2.3,0,0,0,2.51,2.48,3.5,3.5,0,0,0,3.32-2.39,5,5,0,0,0,.13-1.11Z"/><path class="cls-3" d="M115.56,46.31h.08c.46-.86,1-1.71,1.47-2.52l4.16-6.27H129L121.61,46,130,58.37h-7.85l-5-8.57-1.64,2v6.53h-6.38V28.1h6.38Z"/><path class="cls-3" d="M143.82,58.37l-.38-2.1h-.11a7.36,7.36,0,0,1-5.89,2.57,6.34,6.34,0,0,1-6.64-6.39c0-5.42,4.79-8,12-8v-.3c0-1.11-.59-2.69-3.73-2.69a11.41,11.41,0,0,0-5.67,1.58l-1.18-4.18a16.81,16.81,0,0,1,8-1.82c6.85,0,9,4.08,9,9V53.3a31.43,31.43,0,0,0,.3,5.07Zm-.75-9.85c-3.36-.05-6,.77-6,3.28a2.32,2.32,0,0,0,2.53,2.48,3.49,3.49,0,0,0,3.31-2.39,5,5,0,0,0,.13-1.11Z"/><path class="cls-3" d="M161.12,31.55v6h4.59v4.77h-4.59v7.55c0,2.52.6,3.66,2.52,3.66a10,10,0,0,0,1.9-.16l0,4.9a12.42,12.42,0,0,1-4.17.55A6.58,6.58,0,0,1,156.64,57c-1.18-1.24-1.76-3.25-1.76-6.18V42.29h-2.73V37.52h2.73V33Z"/><path class="cls-2" d="M8.31,81.74V73.65c0-.37,0-.9,0-.9h0s-.22.45-.4.75L5.67,77.29h0L3.45,73.54,3,72.72H3s0,.54,0,.93v8.09H.59V68.61H3.25l2,3.52.42.83h0s.28-.52.44-.84l1.94-3.51h2.67V81.74Z"/><path class="cls-2" d="M22.86,68.61h2.4v8.76c0,3.17-1.68,4.56-3.94,4.56s-4-1.39-4-4.58V68.61h2.41v8.87c0,1.3.46,2.1,1.57,2.1s1.57-.84,1.57-2.12Z"/><path class="cls-2" d="M32.8,77.93a2.2,2.2,0,0,0,2.05,1.65c1,0,1.7-.45,1.7-1.46C36.55,76,31.21,76,31.21,72a3.46,3.46,0,0,1,3.57-3.58,4,4,0,0,1,3.93,2.83l-2.08,1.32c-.32-1.09-.87-1.8-1.85-1.8a1.09,1.09,0,0,0-1.17,1.16c0,2.32,5.34,1.86,5.34,6.19,0,2.33-1.7,3.81-4.1,3.81a4.26,4.26,0,0,1-4.1-2.59Z"/><path class="cls-2" d="M45.61,81.74V71H43.33V68.61h7V71H48V81.74Z"/><path class="cls-2" d="M64.42,81.74V68.61h3.35c3.56,0,4.73,3.15,4.73,6.56s-1.17,6.57-4.73,6.57Zm3.35-2.34c1.64,0,2.33-1.86,2.33-4.23S69.41,71,67.77,71h-1V79.4Z"/><path class="cls-2" d="M77.73,75.17c0-3.6,1.07-6.75,4.45-6.75s4.46,3.15,4.46,6.75-1.08,6.76-4.46,6.76S77.73,78.78,77.73,75.17Zm6.5,0c0-2.73-.57-4.4-2-4.4s-2.05,1.67-2.05,4.4.59,4.41,2.05,4.41S84.23,77.91,84.23,75.17Z"/><path class="cls-2" d="M99.85,81.74v0l4.27-9.88c.17-.4.41-.85.41-.85l0,0h-3.94V68.61h7.58v0l-4.27,9.83c-.17.39-.44.9-.44.9l0,0h4.07v2.34Z"/><path class="cls-2" d="M118.68,81.74l-.42-2.06h-3l-.4,2.06h-2.52l3.07-13.13h2.74l3.06,13.13ZM117,73.22c-.07-.35-.18-1.12-.18-1.12h0s-.11.77-.18,1.12l-.87,4.3h2.12Z"/><path class="cls-2" d="M131.88,81.74l-2.11-5.46h-.07s-.34.64-.78,1.33v4.13h-2.4V68.61h2.4v5h0s.24-.54.42-.86l2.37-4.09h2.77l-3.29,5.27,3.24,7.86Z"/><path class="cls-2" d="M144.85,81.74l-.42-2.06h-3l-.4,2.06h-2.52l3.07-13.13h2.74l3.06,13.13Zm-1.7-8.52c-.07-.35-.18-1.12-.18-1.12h0s-.11.77-.19,1.12l-.86,4.3H144Z"/><path class="cls-2" d="M153.41,81.74V71h-2.28V68.61h7V71h-2.27V81.74Z"/><path class="cls-2" d="M163.17,80.45a1.45,1.45,0,1,1,1.46,1.48A1.49,1.49,0,0,1,163.17,80.45Zm.24-2.65V68.61h2.4V77.8Z"/></g></g></svg>